  0
SECTION
  2
HEADER
  9
$ACADVER
  1
AC1015
  9
$ACADMAINTVER
 70
     6
  9
$DWGCODEPAGE
  3
ANSI_1252
  9
$INSBASE
 10
0.0
 20
0.0
 30
0.0
  9
$EXTMIN
 10
9.9428386932
 20
3.8288233468
 30
0.0
  9
$EXTMAX
 10
745.225281161
 20
578.2179680129
 30
0.0
  9
$LIMMIN
 10
0.0
 20
0.0
  9
$LIMMAX
 10
420.0
 20
297.0
  9
$ORTHOMODE
 70
     0
  9
$REGENMODE
 70
     1
  9
$FILLMODE
 70
     1
  9
$QTEXTMODE
 70
     0
  9
$MIRRTEXT
 70
     1
  9
$LTSCALE
 40
1.0
  9
$ATTMODE
 70
     1
  9
$TEXTSIZE
 40
3.5
  9
$TRACEWID
 40
1.0
  9
$TEXTSTYLE
  7
Standard
  9
$CLAYER
  8
0
  9
$CELTYPE
  6
ByLayer
  9
$CECOLOR
 62
   256
  9
$CELTSCALE
 40
1.0
  9
$DISPSILH
 70
     0
  9
$DIMSCALE
 40
1.0
  9
$DIMASZ
 40
3.302
  9
$DIMEXO
 40
1.0
  9
$DIMDLI
 40
3.75
  9
$DIMRND
 40
0.0
  9
$DIMDLE
 40
0.0
  9
$DIMEXE
 40
1.0
  9
$DIMTP
 40
0.0
  9
$DIMTM
 40
0.0
  9
$DIMTXT
 40
3.5
  9
$DIMCEN
 40
2.5
  9
$DIMTSZ
 40
0.0
  9
$DIMTOL
 70
     0
  9
$DIMLIM
 70
     0
  9
$DIMTIH
 70
     1
  9
$DIMTOH
 70
     1
  9
$DIMSE1
 70
     0
  9
$DIMSE2
 70
     0
  9
$DIMTAD
 70
     1
  9
$DIMZIN
 70
     0
  9
$DIMBLK
  1

  9
$DIMASO
 70
     1
  9
$DIMSHO
 70
     1
  9
$DIMPOST
  1

  9
$DIMAPOST
  1

  9
$DIMALT
 70
     0
  9
$DIMALTD
 70
     3
  9
$DIMALTF
 40
0.0393700787
  9
$DIMLFAC
 40
1.0
  9
$DIMTOFL
 70
     1
  9
$DIMTVP
 40
0.0
  9
$DIMTIX
 70
     0
  9
$DIMSOXD
 70
     0
  9
$DIMSAH
 70
     0
  9
$DIMBLK1
  1

  9
$DIMBLK2
  1

  9
$DIMSTYLE
  2
ISO-25
  9
$DIMCLRD
 70
     0
  9
$DIMCLRE
 70
     0
  9
$DIMCLRT
 70
     0
  9
$DIMTFAC
 40
1.0
  9
$DIMGAP
 40
1.524
  9
$DIMJUST
 70
     0
  9
$DIMSD1
 70
     0
  9
$DIMSD2
 70
     0
  9
$DIMTOLJ
 70
     0
  9
$DIMTZIN
 70
     0
  9
$DIMALTZ
 70
     0
  9
$DIMALTTZ
 70
     0
  9
$DIMUPT
 70
     0
  9
$DIMDEC
 70
     2
  9
$DIMTDEC
 70
     2
  9
$DIMALTU
 70
     2
  9
$DIMALTTD
 70
     3
  9
$DIMTXSTY
  7
Standard
  9
$DIMAUNIT
 70
     0
  9
$DIMADEC
 70
     2
  9
$DIMALTRND
 40
0.0
  9
$DIMAZIN
 70
     0
  9
$DIMDSEP
 70
    44
  9
$DIMATFIT
 70
     3
  9
$DIMFRAC
 70
     0
  9
$DIMLDRBLK
  1

  9
$DIMLUNIT
 70
     2
  9
$DIMLWD
 70
    -2
  9
$DIMLWE
 70
    -2
  9
$DIMTMOVE
 70
     0
  9
$LUNITS
 70
     2
  9
$LUPREC
 70
     2
  9
$SKETCHINC
 40
1.0
  9
$FILLETRAD
 40
10.0
  9
$AUNITS
 70
     0
  9
$AUPREC
 70
     2
  9
$MENU
  1
.
  9
$ELEVATION
 40
0.0
  9
$PELEVATION
 40
0.0
  9
$THICKNESS
 40
0.0
  9
$LIMCHECK
 70
     0
  9
$CHAMFERA
 40
0.0
  9
$CHAMFERB
 40
0.0
  9
$CHAMFERC
 40
0.0
  9
$CHAMFERD
 40
0.0
  9
$SKPOLY
 70
     0
  9
$TDCREATE
 40
2458194.776911007
  9
$TDUCREATE
 40
2458194.98524434
  9
$TDUPDATE
 40
2458194.77694272
  9
$TDUUPDATE
 40
2458194.985276053
  9
$TDINDWG
 40
0.0000000116
  9
$TDUSRTIMER
 40
0.0000000116
  9
$USRTIMER
 70
     1
  9
$ANGBASE
 50
0.0
  9
$ANGDIR
 70
     0
  9
$PDMODE
 70
     0
  9
$PDSIZE
 40
-1.0
  9
$PLINEWID
 40
0.0
  9
$SPLFRAME
 70
     0
  9
$SPLINETYPE
 70
     6
  9
$SPLINESEGS
 70
     8
  9
$HANDSEED
  5
2A3
  9
$SURFTAB1
 70
     6
  9
$SURFTAB2
 70
     6
  9
$SURFTYPE
 70
     6
  9
$SURFU
 70
     6
  9
$SURFV
 70
     6
  9
$UCSBASE
  2

  9
$UCSNAME
  2

  9
$UCSORG
 10
0.0
 20
0.0
 30
0.0
  9
$UCSXDIR
 10
1.0
 20
0.0
 30
0.0
  9
$UCSYDIR
 10
0.0
 20
1.0
 30
0.0
  9
$UCSORTHOREF
  2

  9
$UCSORTHOVIEW
 70
     0
  9
$UCSORGTOP
 10
0.0
 20
0.0
 30
0.0
  9
$UCSORGBOTTOM
 10
0.0
 20
0.0
 30
0.0
  9
$UCSORGLEFT
 10
0.0
 20
0.0
 30
0.0
  9
$UCSORGRIGHT
 10
0.0
 20
0.0
 30
0.0
  9
$UCSORGFRONT
 10
0.0
 20
0.0
 30
0.0
  9
$UCSORGBACK
 10
0.0
 20
0.0
 30
0.0
  9
$PUCSBASE
  2

  9
$PUCSNAME
  2

  9
$PUCSORG
 10
0.0
 20
0.0
 30
0.0
  9
$PUCSXDIR
 10
1.0
 20
0.0
 30
0.0
  9
$PUCSYDIR
 10
0.0
 20
1.0
 30
0.0
  9
$PUCSORTHOREF
  2

  9
$PUCSORTHOVIEW
 70
     0
  9
$PUCSORGTOP
 10
0.0
 20
0.0
 30
0.0
  9
$PUCSORGBOTTOM
 10
0.0
 20
0.0
 30
0.0
  9
$PUCSORGLEFT
 10
0.0
 20
0.0
 30
0.0
  9
$PUCSORGRIGHT
 10
0.0
 20
0.0
 30
0.0
  9
$PUCSORGFRONT
 10
0.0
 20
0.0
 30
0.0
  9
$PUCSORGBACK
 10
0.0
 20
0.0
 30
0.0
  9
$USERI1
 70
     0
  9
$USERI2
 70
     0
  9
$USERI3
 70
     0
  9
$USERI4
 70
     0
  9
$USERI5
 70
     0
  9
$USERR1
 40
0.0
  9
$USERR2
 40
0.0
  9
$USERR3
 40
0.0
  9
$USERR4
 40
0.0
  9
$USERR5
 40
0.0
  9
$WORLDVIEW
 70
     1
  9
$SHADEDGE
 70
     3
  9
$SHADEDIF
 70
    70
  9
$TILEMODE
 70
     1
  9
$MAXACTVP
 70
    64
  9
$PINSBASE
 10
0.0
 20
0.0
 30
0.0
  9
$PLIMCHECK
 70
     0
  9
$PEXTMIN
 10
1.0000000000E+20
 20
1.0000000000E+20
 30
1.0000000000E+20
  9
$PEXTMAX
 10
-1.0000000000E+20
 20
-1.0000000000E+20
 30
-1.0000000000E+20
  9
$PLIMMIN
 10
0.0
 20
0.0
  9
$PLIMMAX
 10
420.0
 20
297.0
  9
$UNITMODE
 70
     0
  9
$VISRETAIN
 70
     1
  9
$PLINEGEN
 70
     0
  9
$PSLTSCALE
 70
     1
  9
$TREEDEPTH
 70
  3020
  9
$CMLSTYLE
  2
Standard
  9
$CMLJUST
 70
     0
  9
$CMLSCALE
 40
20.0
  9
$PROXYGRAPHICS
 70
     1
  9
$MEASUREMENT
 70
     1
  9
$CELWEIGHT
370
    -1
  9
$ENDCAPS
280
     0
  9
$JOINSTYLE
280
     0
  9
$LWDISPLAY
290
     1
  9
$INSUNITS
 70
     4
  9
$HYPERLINKBASE
  1

  9
$STYLESHEET
  1

  9
$XEDIT
290
     1
  9
$CEPSNTYPE
380
     0
  9
$PSTYLEMODE
290
     1
  9
$FINGERPRINTGUID
  2
{CAB84060-70D5-4066-9842-2DF3D0B9FA39}
  9
$VERSIONGUID
  2
{FAEB1C32-E019-11D5-929B-00C0DF256EC4}
  9
$EXTNAMES
290
     1
  9
$PSVPSCALE
 40
0.0
  9
$OLESTARTUP
290
     0
  0
ENDSEC
  0
SECTION
  2
CLASSES
  0
CLASS
  1
ACDBDICTIONARYWDFLT
  2
AcDbDictionaryWithDefault
  3
ObjectDBX Classes
 90
        0
280
     0
281
     0
  0
CLASS
  1
VISUALSTYLE
  2
AcDbVisualStyle
  3
ObjectDBX Classes
 90
     4095
280
     0
281
     0
  0
CLASS
  1
MATERIAL
  2
AcDbMaterial
  3
ObjectDBX Classes
 90
     1153
280
     0
281
     0
  0
CLASS
  1
SCALE
  2
AcDbScale
  3
ObjectDBX Classes
 90
     1153
280
     0
281
     0
  0
CLASS
  1
TABLESTYLE
  2
AcDbTableStyle
  3
ObjectDBX Classes
 90
     4095
280
     0
281
     0
  0
CLASS
  1
MLEADERSTYLE
  2
AcDbMLeaderStyle
  3
ACDB_MLEADERSTYLE_CLASS
 90
     4095
280
     0
281
     0
  0
CLASS
  1
SUN
  2
AcDbSun
  3
SCENEOE
 90
     1153
280
     0
281
     0
  0
CLASS
  1
ACDBPLACEHOLDER
  2
AcDbPlaceHolder
  3
ObjectDBX Classes
 90
        0
280
     0
281
     0
  0
CLASS
  1
LAYOUT
  2
AcDbLayout
  3
ObjectDBX Classes
 90
        0
280
     0
281
     0
  0
ENDSEC
  0
SECTION
  2
TABLES
  0
TABLE
  2
VPORT
  5
8
330
0
100
AcDbSymbolTable
 70
     1
  0
VPORT
  5
29
330
8
100
AcDbSymbolTableRecord
100
AcDbViewportTableRecord
  2
*Active
 70
     0
 10
0.0
 20
0.0
 11
1.0
 21
1.0
 12
377.5840599271
 22
291.0233956799
 13
0.0
 23
0.0
 14
10.0
 24
10.0
 15
10.0
 25
10.0
 16
0.0
 26
0.0
 36
1.0
 17
0.0
 27
0.0
 37
0.0
 40
585.8769275594
 41
1.2801120099
 42
50.0
 43
0.0
 44
0.0
 50
0.0
 51
0.0
 71
     0
 72
   100
 73
     1
 74
     3
 75
     0
 76
     0
 77
     0
 78
     0
281
     0
 65
     1
110
0.0
120
0.0
130
0.0
111
1.0
121
0.0
131
0.0
112
0.0
122
1.0
132
0.0
 79
     0
146
0.0
  0
ENDTAB
  0
TABLE
  2
LTYPE
  5
5
330
0
100
AcDbSymbolTable
 70
     6
  0
LTYPE
  5
14
330
5
100
AcDbSymbolTableRecord
100
AcDbLinetypeTableRecord
  2
ByBlock
 70
     0
  3

 72
    65
 73
     0
 40
0.0
  0
LTYPE
  5
15
330
5
100
AcDbSymbolTableRecord
100
AcDbLinetypeTableRecord
  2
ByLayer
 70
     0
  3

 72
    65
 73
     0
 40
0.0
  0
LTYPE
  5
16
330
5
100
AcDbSymbolTableRecord
100
AcDbLinetypeTableRecord
  2
Continuous
 70
     0
  3
Solid line
 72
    65
 73
     0
 40
0.0
  0
LTYPE
  5
6E
330
5
100
AcDbSymbolTableRecord
100
AcDbLinetypeTableRecord
  2
HIDDEN
 70
     0
  3
Hidden __ __ __ __ __ __ __ __ __ __ __ __ __ __
 72
    65
 73
     2
 40
1.905
 49
1.27
 74
     0
 49
-0.635
 74
     0
  0
LTYPE
  5
6F
330
5
100
AcDbSymbolTableRecord
100
AcDbLinetypeTableRecord
  2
PHANTOM
 70
     0
  3
Phantom ______  __  __  ______  __  __  ______
 72
    65
 73
     6
 40
12.7
 49
6.35
 74
     0
 49
-1.27
 74
     0
 49
1.27
 74
     0
 49
-1.27
 74
     0
 49
1.27
 74
     0
 49
-1.27
 74
     0
  0
LTYPE
  5
70
330
5
100
AcDbSymbolTableRecord
100
AcDbLinetypeTableRecord
  2
CENTER
 70
     0
  3
Center ____ _ ____ _ ____ _ ____ _ ____ _ ____
 72
    65
 73
     4
 40
10.16
 49
6.35
 74
     0
 49
-1.27
 74
     0
 49
1.27
 74
     0
 49
-1.27
 74
     0
  0
LTYPE
  5
71
330
5
100
AcDbSymbolTableRecord
100
AcDbLinetypeTableRecord
  2
CENTERX2
 70
     0
  3
Center (2x) ________  __  ________  __  _____
 72
    65
 73
     4
 40
20.32
 49
12.7
 74
     0
 49
-2.54
 74
     0
 49
2.54
 74
     0
 49
-2.54
 74
     0
  0
LTYPE
  5
72
330
5
100
AcDbSymbolTableRecord
100
AcDbLinetypeTableRecord
  2
DOT2
 70
     0
  3
Dot (.5x) ........................................
 72
    65
 73
     2
 40
0.635
 49
0.0
 74
     0
 49
-0.635
 74
     0
  0
ENDTAB
  0
TABLE
  2
LAYER
  5
2
330
0
100
AcDbSymbolTable
 70
     1
  0
LAYER
  5
10
330
2
100
AcDbSymbolTableRecord
100
AcDbLayerTableRecord
  2
0
 70
     0
 62
     7
  6
Continuous
370
    -3
390
F
  0
ENDTAB
  0
TABLE
  2
STYLE
  5
3
330
0
100
AcDbSymbolTable
 70
     1
  0
STYLE
  5
11
330
3
100
AcDbSymbolTableRecord
100
AcDbTextStyleTableRecord
  2
Standard
 70
     0
 40
0.0
 41
1.0
 50
0.0
 71
     0
 42
3.5
  3
txt
  4

  0
ENDTAB
  0
TABLE
  2
VIEW
  5
6
330
0
100
AcDbSymbolTable
 70
     0
  0
ENDTAB
  0
TABLE
  2
UCS
  5
7
330
0
100
AcDbSymbolTable
 70
     0
  0
ENDTAB
  0
TABLE
  2
APPID
  5
9
330
0
100
AcDbSymbolTable
 70
     1
  0
APPID
  5
12
330
9
100
AcDbSymbolTableRecord
100
AcDbRegAppTableRecord
  2
ACAD
 70
     0
  0
ENDTAB
  0
TABLE
  2
DIMSTYLE
  5
A
330
0
100
AcDbSymbolTable
 70
     1
100
AcDbDimStyleTable
  0
DIMSTYLE
105
27
330
A
100
AcDbSymbolTableRecord
100
AcDbDimStyleTableRecord
  2
ISO-25
 70
     0
 41
2.5
 42
0.625
 43
3.75
 44
1.25
 73
     0
 74
     0
 77
     1
 78
     8
140
2.5
141
2.5
143
0.0393700787
147
0.625
171
     3
172
     1
178
     0
271
     2
272
     2
274
     3
278
    44
283
     0
284
     8
340
11
  0
ENDTAB
  0
TABLE
  2
BLOCK_RECORD
  5
1
330
0
100
AcDbSymbolTable
 70
     1
  0
BLOCK_RECORD
  5
1F
330
1
100
AcDbSymbolTableRecord
100
AcDbBlockTableRecord
  2
*Model_Space
340
22
  0
BLOCK_RECORD
  5
1B
330
1
100
AcDbSymbolTableRecord
100
AcDbBlockTableRecord
  2
*Paper_Space
340
1E
  0
BLOCK_RECORD
  5
23
330
1
100
AcDbSymbolTableRecord
100
AcDbBlockTableRecord
  2
*Paper_Space0
340
26
  0
ENDTAB
  0
ENDSEC
  0
SECTION
  2
BLOCKS
  0
BLOCK
  5
20
330
1F
100
AcDbEntity
  8
0
100
AcDbBlockBegin
  2
*Model_Space
 70
     0
 10
0.0
 20
0.0
 30
0.0
  3
*Model_Space
  1

  0
ENDBLK
  5
21
330
1F
100
AcDbEntity
  8
0
100
AcDbBlockEnd
  0
BLOCK
  5
1C
330
1B
100
AcDbEntity
 67
     1
  8
0
100
AcDbBlockBegin
  2
*Paper_Space
 70
     0
 10
0.0
 20
0.0
 30
0.0
  3
*Paper_Space
  1

  0
ENDBLK
  5
1D
330
1B
100
AcDbEntity
 67
     1
  8
0
100
AcDbBlockEnd
  0
BLOCK
  5
24
330
23
100
AcDbEntity
  8
0
100
AcDbBlockBegin
  2
*Paper_Space0
 70
     0
 10
0.0
 20
0.0
 30
0.0
  3
*Paper_Space0
  1

  0
ENDBLK
  5
25
330
23
100
AcDbEntity
  8
0
100
AcDbBlockEnd
  0
ENDSEC
  0
SECTION
  2
ENTITIES
  0
ARC
  5
73
330
1F
100
AcDbEntity
  8
0
  6
Continuous
 62
     7
100
AcDbCircle
 10
33.4996890017
 20
566.4485191182
 30
0.0
 40
10.0
100
AcDbArc
 50
90.0
 51
180.0
  0
ARC
  5
74
330
1F
100
AcDbEntity
  8
0
  6
Continuous
 62
     7
100
AcDbCircle
 10
33.4996890017
 20
536.4485191182
 30
0.0
 40
10.0
100
AcDbArc
 50
180.0
 51
270.0
  0
ARC
  5
75
330
1F
100
AcDbEntity
  8
0
  6
Continuous
 62
     7
100
AcDbCircle
 10
63.4996890017
 20
536.4485191182
 30
0.0
 40
10.00000000000001
100
AcDbArc
 50
270.0
 51
0.0
  0
ARC
  5
76
330
1F
100
AcDbEntity
  8
0
  6
Continuous
 62
     7
100
AcDbCircle
 10
98.4996890017
 20
541.4485191182
 30
0.0
 40
5.0
100
AcDbArc
 50
270.0
 51
0.0
  0
ARC
  5
77
330
1F
100
AcDbEntity
  8
0
  6
Continuous
 62
     7
100
AcDbCircle
 10
98.4996890017
 20
561.4485191182
 30
0.0
 40
5.0
100
AcDbArc
 50
0.0
 51
90.0
  0
ARC
  5
78
330
1F
100
AcDbEntity
  8
0
  6
Continuous
 62
     7
100
AcDbCircle
 10
63.4996890017
 20
566.4485191182
 30
0.0
 40
10.00000000000001
100
AcDbArc
 50
0.0
 51
90.0
  0
CIRCLE
  5
79
330
1F
100
AcDbEntity
  8
0
  6
Continuous
 62
     7
100
AcDbCircle
 10
93.4996890017
 20
560.4485191182
 30
0.0
 40
1.999999999999978
  0
CIRCLE
  5
7A
330
1F
100
AcDbEntity
  8
0
  6
Continuous
 62
     7
100
AcDbCircle
 10
93.4996890017
 20
542.4485191182
 30
0.0
 40
1.999999999999978
  0
CIRCLE
  5
7B
330
1F
100
AcDbEntity
  8
0
  6
Continuous
 62
     7
100
AcDbCircle
 10
66.4996890017
 20
533.4485191182
 30
0.0
 40
2.000000000000012
  0
CIRCLE
  5
7C
330
1F
100
AcDbEntity
  8
0
  6
Continuous
 62
     7
100
AcDbCircle
 10
66.4996890017
 20
569.4485191182
 30
0.0
 40
1.999999999999978
  0
CIRCLE
  5
7D
330
1F
100
AcDbEntity
  8
0
  6
Continuous
 62
     7
100
AcDbCircle
 10
68.4996890017
 20
561.4485191182
 30
0.0
 40
2.499999999999984
  0
CIRCLE
  5
7E
330
1F
100
AcDbEntity
  8
0
  6
Continuous
 62
     7
100
AcDbCircle
 10
48.4996890017
 20
551.4485191182
 30
0.0
 40
2.499999999999985
  0
CIRCLE
  5
7F
330
1F
100
AcDbEntity
  8
0
  6
Continuous
 62
     7
100
AcDbCircle
 10
30.4996890017
 20
533.4485191182
 30
0.0
 40
2.000000000000012
  0
CIRCLE
  5
80
330
1F
100
AcDbEntity
  8
0
  6
Continuous
 62
     7
100
AcDbCircle
 10
30.4996890017
 20
569.4485191182
 30
0.0
 40
1.999999999999978
  0
ARC
  5
81
330
1F
100
AcDbEntity
  8
0
  6
Continuous
 62
     7
100
AcDbCircle
 10
71.120614724
 20
424.7355786523
 30
0.0
 40
7.499999999999983
100
AcDbArc
 50
2.4134492399
 51
180.0
  0
ARC
  5
82
330
1F
100
AcDbEntity
  8
0
  6
Continuous
 62
     7
100
AcDbCircle
 10
76.120614724
 20
434.7355786523
 30
0.0
 40
10.00000000000008
100
AcDbArc
 50
284.4381484204
 51
0.0
  0
ARC
  5
83
330
1F
100
AcDbEntity
  8
0
  6
Continuous
 62
     7
100
AcDbCircle
 10
76.120614724
 20
484.7355786523
 30
0.0
 40
10.0
100
AcDbArc
 50
0.0
 51
90.0
  0
ARC
  5
84
330
1F
100
AcDbEntity
  8
0
  6
Continuous
 62
     7
100
AcDbCircle
 10
66.120614724
 20
504.7355786523
 30
0.0
 40
10.0
100
AcDbArc
 50
0.0
 51
90.0
  0
ARC
  5
85
330
1F
100
AcDbEntity
  8
0
  6
Continuous
 62
     7
100
AcDbCircle
 10
36.120614724
 20
504.7355786523
 30
0.0
 40
10.00000000000001
100
AcDbArc
 50
90.0
 51
180.0
  0
ARC
  5
86
330
1F
100
AcDbEntity
  8
0
  6
Continuous
 62
     7
100
AcDbCircle
 10
26.120614724
 20
484.7355786523
 30
0.0
 40
10.00000000000001
100
AcDbArc
 50
90.0
 51
180.0
  0
ARC
  5
87
330
1F
100
AcDbEntity
  8
0
  6
Continuous
 62
     7
100
AcDbCircle
 10
26.120614724
 20
434.7355786523
 30
0.0
 40
10.00000000000001
100
AcDbArc
 50
180.0
 51
270.0
  0
CIRCLE
  5
88
330
1F
100
AcDbEntity
  8
0
  6
Continuous
 62
     7
100
AcDbCircle
 10
52.120614724
 20
507.7355786523
 30
0.0
 40
2.000000000000002
  0
CIRCLE
  5
89
330
1F
100
AcDbEntity
  8
0
  6
Continuous
 62
     7
100
AcDbCircle
 10
79.120614724
 20
487.7355786523
 30
0.0
 40
1.999999999999995
  0
CIRCLE
  5
8A
330
1F
100
AcDbEntity
  8
0
  6
Continuous
 62
     7
100
AcDbCircle
 10
79.120614724
 20
431.7355786523
 30
0.0
 40
1.999999999999995
  0
CIRCLE
  5
8B
330
1F
100
AcDbEntity
  8
0
  6
Continuous
 62
     7
100
AcDbCircle
 10
51.120614724
 20
459.7355786523
 30
0.0
 40
9.99999999999999
  0
CIRCLE
  5
8C
330
1F
100
AcDbEntity
  8
0
  6
Continuous
 62
     7
100
AcDbCircle
 10
23.120614724
 20
431.7355786523
 30
0.0
 40
2.000000000000019
  0
CIRCLE
  5
8D
330
1F
100
AcDbEntity
  8
0
  6
Continuous
 62
     7
100
AcDbCircle
 10
36.120614724
 20
482.7355786523
 30
0.0
 40
2.500000000000016
  0
CIRCLE
  5
8E
330
1F
100
AcDbEntity
  8
0
  6
Continuous
 62
     7
100
AcDbCircle
 10
23.120614724
 20
487.7355786523
 30
0.0
 40
1.999999999999995
  0
CIRCLE
  5
8F
330
1F
100
AcDbEntity
  8
0
  6
Continuous
 62
     7
100
AcDbCircle
 10
34.120614724
 20
507.7355786523
 30
0.0
 40
1.999999999999995
  0
CIRCLE
  5
90
330
1F
100
AcDbEntity
  8
0
  6
Continuous
 62
     7
100
AcDbCircle
 10
243.8259016841
 20
546.9651679524
 30
0.0
 40
2.499999999999979
  0
CIRCLE
  5
91
330
1F
100
AcDbEntity
  8
0
  6
Continuous
 62
     7
100
AcDbCircle
 10
213.8259016841
 20
546.9651679524
 30
0.0
 40
2.499999999999979
  0
CIRCLE
  5
92
330
1F
100
AcDbEntity
  8
0
  6
Continuous
 62
     7
100
AcDbCircle
 10
244.3405519742
 20
484.6924828503
 30
0.0
 40
2.500000000000012
  0
CIRCLE
  5
93
330
1F
100
AcDbEntity
  8
0
  6
Continuous
 62
     7
100
AcDbCircle
 10
214.3405519742
 20
484.6924828503
 30
0.0
 40
2.500000000000012
  0
ARC
  5
94
330
1F
100
AcDbEntity
  8
0
  6
Continuous
 62
     7
100
AcDbCircle
 10
75.4601152343
 20
307.0629911787
 30
0.0
 40
10.0
100
AcDbArc
 50
270.0
 51
0.0
  0
ARC
  5
95
330
1F
100
AcDbEntity
  8
0
  6
Continuous
 62
     7
100
AcDbCircle
 10
95.4601152343
 20
317.0629911787
 30
0.0
 40
10.00000000000006
100
AcDbArc
 50
90.0
 51
180.0
  0
ARC
  5
96
330
1F
100
AcDbEntity
  8
0
  6
Continuous
 62
     7
100
AcDbCircle
 10
125.4601152343
 20
337.0629911787
 30
0.0
 40
10.00000000000001
100
AcDbArc
 50
270.0
 51
0.0
  0
ARC
  5
97
330
1F
100
AcDbEntity
  8
0
  6
Continuous
 62
     7
100
AcDbCircle
 10
125.4601152343
 20
407.0629911787
 30
0.0
 40
10.00000000000001
100
AcDbArc
 50
0.0
 51
90.0
  0
ARC
  5
98
330
1F
100
AcDbEntity
  8
0
  6
Continuous
 62
     7
100
AcDbCircle
 10
25.4601152343
 20
407.0629911787
 30
0.0
 40
10.0
100
AcDbArc
 50
90.0
 51
180.0
  0
ARC
  5
99
330
1F
100
AcDbEntity
  8
0
  6
Continuous
 62
     7
100
AcDbCircle
 10
25.4601152343
 20
307.0629911787
 30
0.0
 40
10.0
100
AcDbArc
 50
180.0
 51
270.0
  0
CIRCLE
  5
9A
330
1F
100
AcDbEntity
  8
0
  6
Continuous
 62
     7
100
AcDbCircle
 10
127.4601152343
 20
409.0629911787
 30
0.0
 40
2.000000000000036
  0
CIRCLE
  5
9B
330
1F
100
AcDbEntity
  8
0
  6
Continuous
 62
     7
100
AcDbCircle
 10
105.4601152343
 20
357.0629911787
 30
0.0
 40
2.499999999999984
  0
CIRCLE
  5
9C
330
1F
100
AcDbEntity
  8
0
  6
Continuous
 62
     7
100
AcDbCircle
 10
77.4601152343
 20
305.0629911787
 30
0.0
 40
1.999999999999982
  0
CIRCLE
  5
9D
330
1F
100
AcDbEntity
  8
0
  6
Continuous
 62
     7
100
AcDbCircle
 10
23.4601152343
 20
305.0629911787
 30
0.0
 40
2.000000000000005
  0
CIRCLE
  5
9E
330
1F
100
AcDbEntity
  8
0
  6
Continuous
 62
     7
100
AcDbCircle
 10
39.5201152343
 20
357.0629911787
 30
0.0
 40
2.099999999999977
  0
CIRCLE
  5
9F
330
1F
100
AcDbEntity
  8
0
  6
Continuous
 62
     7
100
AcDbCircle
 10
23.4601152343
 20
409.0629911787
 30
0.0
 40
2.000000000000005
  0
CIRCLE
  5
A0
330
1F
100
AcDbEntity
  8
0
  6
Continuous
 62
     7
100
AcDbCircle
 10
175.4428386932
 20
71.4668235629
 30
0.0
 40
2.500000000000008
  0
CIRCLE
  5
A1
330
1F
100
AcDbEntity
  8
0
  6
Continuous
 62
     7
100
AcDbCircle
 10
100.4428386932
 20
71.4668235629
 30
0.0
 40
2.499999999999994
  0
CIRCLE
  5
A2
330
1F
100
AcDbEntity
  8
0
  6
Continuous
 62
     7
100
AcDbCircle
 10
88.4428386932
 20
54.8001568963
 30
0.0
 40
2.499999999999992
  0
CIRCLE
  5
A3
330
1F
100
AcDbEntity
  8
0
  6
Continuous
 62
     7
100
AcDbCircle
 10
175.4428386932
 20
224.8001568963
 30
0.0
 40
2.500000000000012
  0
CIRCLE
  5
A4
330
1F
100
AcDbEntity
  8
0
  6
Continuous
 62
     7
100
AcDbCircle
 10
100.4428386932
 20
224.8001568963
 30
0.0
 40
2.499999999999998
  0
CIRCLE
  5
A5
330
1F
100
AcDbEntity
  8
0
  6
Continuous
 62
     7
100
AcDbCircle
 10
88.4428386932
 20
241.4668235629
 30
0.0
 40
2.499999999999998
  0
CIRCLE
  5
A6
330
1F
100
AcDbEntity
  8
0
  6
Continuous
 62
     7
100
AcDbCircle
 10
287.1765941821
 20
263.6767629237
 30
0.0
 40
6.00000000000004
  0
CIRCLE
  5
A7
330
1F
100
AcDbEntity
  8
0
  6
Continuous
 62
     7
100
AcDbCircle
 10
309.1765941821
 20
263.6767629237
 30
0.0
 40
6.00000000000004
  0
CIRCLE
  5
A8
330
1F
100
AcDbEntity
  8
0
  6
Continuous
 62
     7
100
AcDbCircle
 10
325.3232608487
 20
233.6767629237
 30
0.0
 40
4.150000000000035
  0
CIRCLE
  5
A9
330
1F
100
AcDbEntity
  8
0
  6
Continuous
 62
     7
100
AcDbCircle
 10
305.3232608487
 20
233.6767629237
 30
0.0
 40
4.149999999999972
  0
CIRCLE
  5
AA
330
1F
100
AcDbEntity
  8
0
  6
Continuous
 62
     7
100
AcDbCircle
 10
285.3232608487
 20
233.6767629237
 30
0.0
 40
4.150000000000026
  0
CIRCLE
  5
AB
330
1F
100
AcDbEntity
  8
0
  6
Continuous
 62
     7
100
AcDbCircle
 10
268.6565941821
 20
233.6767629237
 30
0.0
 40
4.150000000000035
  0
CIRCLE
  5
AC
330
1F
100
AcDbEntity
  8
0
  6
Continuous
 62
     7
100
AcDbCircle
 10
253.6565941821
 20
233.6767629237
 30
0.0
 40
4.150000000000062
  0
CIRCLE
  5
AD
330
1F
100
AcDbEntity
  8
0
  6
Continuous
 62
     7
100
AcDbCircle
 10
271.6965941821
 20
278.6767629237
 30
0.0
 40
1.500000000000104
  0
CIRCLE
  5
AE
330
1F
100
AcDbEntity
  8
0
  6
Continuous
 62
     7
100
AcDbCircle
 10
271.6965941821
 20
252.6767629237
 30
0.0
 40
1.500000000000033
  0
CIRCLE
  5
AF
330
1F
100
AcDbEntity
  8
0
  6
Continuous
 62
     7
100
AcDbCircle
 10
218.6565941821
 20
252.6767629237
 30
0.0
 40
1.500000000000006
  0
CIRCLE
  5
B0
330
1F
100
AcDbEntity
  8
0
  6
Continuous
 62
     7
100
AcDbCircle
 10
218.6565941821
 20
278.6767629237
 30
0.0
 40
1.50000000000005
  0
ARC
  5
B1
330
1F
100
AcDbEntity
  8
0
  6
Continuous
 62
     7
100
AcDbCircle
 10
264.9902096082
 20
361.6918833722
 30
0.0
 40
25.00000000000003
100
AcDbArc
 50
342.8855668361
 51
197.1144331639
  0
CIRCLE
  5
B2
330
1F
100
AcDbEntity
  8
0
  6
Continuous
 62
     7
100
AcDbCircle
 10
276.9902096082
 20
313.6918833722
 30
0.0
 40
1.999999999999978
  0
CIRCLE
  5
B3
330
1F
100
AcDbEntity
  8
0
  6
Continuous
 62
     7
100
AcDbCircle
 10
276.9902096082
 20
325.6918833722
 30
0.0
 40
2.000000000000049
  0
CIRCLE
  5
B4
330
1F
100
AcDbEntity
  8
0
  6
Continuous
 62
     7
100
AcDbCircle
 10
252.9902096082
 20
313.6918833722
 30
0.0
 40
1.999999999999978
  0
CIRCLE
  5
B5
330
1F
100
AcDbEntity
  8
0
  6
Continuous
 62
     7
100
AcDbCircle
 10
252.9902096082
 20
325.6918833722
 30
0.0
 40
1.999999999999995
  0
CIRCLE
  5
B6
330
1F
100
AcDbEntity
  8
0
  6
Continuous
 62
     7
100
AcDbCircle
 10
264.9902096082
 20
340.6918833722
 30
0.0
 40
2.500000000000012
  0
CIRCLE
  5
B7
330
1F
100
AcDbEntity
  8
0
  6
Continuous
 62
     7
100
AcDbCircle
 10
285.9902096082
 20
361.6918833722
 30
0.0
 40
2.500000000000012
  0
CIRCLE
  5
B8
330
1F
100
AcDbEntity
  8
0
  6
Continuous
 62
     7
100
AcDbCircle
 10
264.9902096082
 20
382.6918833722
 30
0.0
 40
2.49999999999994
  0
CIRCLE
  5
B9
330
1F
100
AcDbEntity
  8
0
  6
Continuous
 62
     7
100
AcDbCircle
 10
264.9902096082
 20
361.6918833722
 30
0.0
 40
9.999999999999975
  0
CIRCLE
  5
BA
330
1F
100
AcDbEntity
  8
0
  6
Continuous
 62
     7
100
AcDbCircle
 10
243.9902096082
 20
361.6918833722
 30
0.0
 40
2.499999999999957
  0
ARC
  5
BB
330
1F
100
AcDbEntity
  8
0
  6
Continuous
 62
     7
100
AcDbCircle
 10
318.3204659288
 20
360.6881460989
 30
0.0
 40
25.0
100
AcDbArc
 50
342.8855668361
 51
197.1144331639
  0
CIRCLE
  5
BC
330
1F
100
AcDbEntity
  8
0
  6
Continuous
 62
     7
100
AcDbCircle
 10
330.3204659288
 20
312.6881460989
 30
0.0
 40
1.999999999999995
  0
CIRCLE
  5
BD
330
1F
100
AcDbEntity
  8
0
  6
Continuous
 62
     7
100
AcDbCircle
 10
330.3204659288
 20
324.6881460989
 30
0.0
 40
2.000000000000049
  0
CIRCLE
  5
BE
330
1F
100
AcDbEntity
  8
0
  6
Continuous
 62
     7
100
AcDbCircle
 10
306.3204659288
 20
312.6881460989
 30
0.0
 40
1.999999999999995
  0
CIRCLE
  5
BF
330
1F
100
AcDbEntity
  8
0
  6
Continuous
 62
     7
100
AcDbCircle
 10
306.3204659288
 20
324.6881460989
 30
0.0
 40
1.999999999999995
  0
CIRCLE
  5
C0
330
1F
100
AcDbEntity
  8
0
  6
Continuous
 62
     7
100
AcDbCircle
 10
318.3204659288
 20
339.6881460989
 30
0.0
 40
2.500000000000012
  0
CIRCLE
  5
C1
330
1F
100
AcDbEntity
  8
0
  6
Continuous
 62
     7
100
AcDbCircle
 10
339.3204659288
 20
360.6881460989
 30
0.0
 40
2.499999999999995
  0
CIRCLE
  5
C2
330
1F
100
AcDbEntity
  8
0
  6
Continuous
 62
     7
100
AcDbCircle
 10
318.3204659288
 20
381.6881460989
 30
0.0
 40
2.499999999999957
  0
CIRCLE
  5
C3
330
1F
100
AcDbEntity
  8
0
  6
Continuous
 62
     7
100
AcDbCircle
 10
318.3204659288
 20
360.6881460989
 30
0.0
 40
9.99999999999996
  0
CIRCLE
  5
C4
330
1F
100
AcDbEntity
  8
0
  6
Continuous
 62
     7
100
AcDbCircle
 10
297.3204659288
 20
360.6881460989
 30
0.0
 40
2.499999999999995
  0
ARC
  5
C5
330
1F
100
AcDbEntity
  8
0
  6
Continuous
 62
     7
100
AcDbCircle
 10
363.5086983837
 20
448.622003849
 30
0.0
 40
25.00000000000007
100
AcDbArc
 50
342.8855668361
 51
197.1144331639
  0
CIRCLE
  5
C6
330
1F
100
AcDbEntity
  8
0
  6
Continuous
 62
     7
100
AcDbCircle
 10
375.5086983837
 20
400.622003849
 30
0.0
 40
1.999999999999995
  0
CIRCLE
  5
C7
330
1F
100
AcDbEntity
  8
0
  6
Continuous
 62
     7
100
AcDbCircle
 10
375.5086983837
 20
412.622003849
 30
0.0
 40
2.000000000000049
  0
CIRCLE
  5
C8
330
1F
100
AcDbEntity
  8
0
  6
Continuous
 62
     7
100
AcDbCircle
 10
351.5086983837
 20
400.622003849
 30
0.0
 40
1.999999999999995
  0
CIRCLE
  5
C9
330
1F
100
AcDbEntity
  8
0
  6
Continuous
 62
     7
100
AcDbCircle
 10
351.5086983837
 20
412.622003849
 30
0.0
 40
1.999999999999995
  0
CIRCLE
  5
CA
330
1F
100
AcDbEntity
  8
0
  6
Continuous
 62
     7
100
AcDbCircle
 10
363.5086983837
 20
427.622003849
 30
0.0
 40
2.499999999999995
  0
CIRCLE
  5
CB
330
1F
100
AcDbEntity
  8
0
  6
Continuous
 62
     7
100
AcDbCircle
 10
384.5086983837
 20
448.622003849
 30
0.0
 40
2.500000000000066
  0
CIRCLE
  5
CC
330
1F
100
AcDbEntity
  8
0
  6
Continuous
 62
     7
100
AcDbCircle
 10
363.5086983837
 20
469.622003849
 30
0.0
 40
2.499999999999957
  0
CIRCLE
  5
CD
330
1F
100
AcDbEntity
  8
0
  6
Continuous
 62
     7
100
AcDbCircle
 10
363.5086983837
 20
448.622003849
 30
0.0
 40
10.00000000000003
  0
CIRCLE
  5
CE
330
1F
100
AcDbEntity
  8
0
  6
Continuous
 62
     7
100
AcDbCircle
 10
342.5086983837
 20
448.622003849
 30
0.0
 40
2.499999999999957
  0
ARC
  5
CF
330
1F
100
AcDbEntity
  8
0
  6
Continuous
 62
     7
100
AcDbCircle
 10
373.6862282159
 20
359.0597413258
 30
0.0
 40
25.00000000000007
100
AcDbArc
 50
342.8855668361
 51
197.1144331639
  0
CIRCLE
  5
D0
330
1F
100
AcDbEntity
  8
0
  6
Continuous
 62
     7
100
AcDbCircle
 10
385.6862282159
 20
311.0597413258
 30
0.0
 40
1.999999999999995
  0
CIRCLE
  5
D1
330
1F
100
AcDbEntity
  8
0
  6
Continuous
 62
     7
100
AcDbCircle
 10
385.6862282159
 20
323.0597413258
 30
0.0
 40
2.000000000000049
  0
CIRCLE
  5
D2
330
1F
100
AcDbEntity
  8
0
  6
Continuous
 62
     7
100
AcDbCircle
 10
361.6862282159
 20
311.0597413258
 30
0.0
 40
1.999999999999995
  0
CIRCLE
  5
D3
330
1F
100
AcDbEntity
  8
0
  6
Continuous
 62
     7
100
AcDbCircle
 10
361.6862282159
 20
323.0597413258
 30
0.0
 40
1.999999999999995
  0
CIRCLE
  5
D4
330
1F
100
AcDbEntity
  8
0
  6
Continuous
 62
     7
100
AcDbCircle
 10
373.6862282159
 20
338.0597413258
 30
0.0
 40
2.500000000000012
  0
CIRCLE
  5
D5
330
1F
100
AcDbEntity
  8
0
  6
Continuous
 62
     7
100
AcDbCircle
 10
394.6862282159
 20
359.0597413258
 30
0.0
 40
2.500000000000066
  0
CIRCLE
  5
D6
330
1F
100
AcDbEntity
  8
0
  6
Continuous
 62
     7
100
AcDbCircle
 10
373.6862282159
 20
380.0597413258
 30
0.0
 40
2.49999999999994
  0
CIRCLE
  5
D7
330
1F
100
AcDbEntity
  8
0
  6
Continuous
 62
     7
100
AcDbCircle
 10
373.6862282159
 20
359.0597413258
 30
0.0
 40
9.999999999999975
  0
CIRCLE
  5
D8
330
1F
100
AcDbEntity
  8
0
  6
Continuous
 62
     7
100
AcDbCircle
 10
352.6862282159
 20
359.0597413258
 30
0.0
 40
2.499999999999957
  0
CIRCLE
  5
D9
330
1F
100
AcDbEntity
  8
0
  6
Continuous
 62
     7
100
AcDbCircle
 10
373.7505621222
 20
553.0676582641
 30
0.0
 40
25.0
  0
CIRCLE
  5
DA
330
1F
100
AcDbEntity
  8
0
  6
Continuous
 62
     7
100
AcDbCircle
 10
373.7505621222
 20
532.0676582641
 30
0.0
 40
2.500000000000012
  0
CIRCLE
  5
DB
330
1F
100
AcDbEntity
  8
0
  6
Continuous
 62
     7
100
AcDbCircle
 10
394.7505621222
 20
553.0676582641
 30
0.0
 40
2.500000000000012
  0
CIRCLE
  5
DC
330
1F
100
AcDbEntity
  8
0
  6
Continuous
 62
     7
100
AcDbCircle
 10
373.7505621222
 20
574.0676582641
 30
0.0
 40
2.500000000000012
  0
CIRCLE
  5
DD
330
1F
100
AcDbEntity
  8
0
  6
Continuous
 62
     7
100
AcDbCircle
 10
352.7505621222
 20
553.0676582641
 30
0.0
 40
2.500000000000012
  0
CIRCLE
  5
DE
330
1F
100
AcDbEntity
  8
0
  6
Continuous
 62
     7
100
AcDbCircle
 10
373.7505621222
 20
553.0676582641
 30
0.0
 40
10.99999999999994
  0
CIRCLE
  5
DF
330
1F
100
AcDbEntity
  8
0
  6
Continuous
 62
     7
100
AcDbCircle
 10
371.6913062041
 20
500.2738476103
 30
0.0
 40
24.99999999999996
  0
CIRCLE
  5
E0
330
1F
100
AcDbEntity
  8
0
  6
Continuous
 62
     7
100
AcDbCircle
 10
371.6913062041
 20
479.2738476103
 30
0.0
 40
2.500000000000012
  0
CIRCLE
  5
E1
330
1F
100
AcDbEntity
  8
0
  6
Continuous
 62
     7
100
AcDbCircle
 10
392.6913062041
 20
500.2738476103
 30
0.0
 40
2.499999999999995
  0
CIRCLE
  5
E2
330
1F
100
AcDbEntity
  8
0
  6
Continuous
 62
     7
100
AcDbCircle
 10
371.6913062041
 20
521.2738476103
 30
0.0
 40
2.500000000000012
  0
CIRCLE
  5
E3
330
1F
100
AcDbEntity
  8
0
  6
Continuous
 62
     7
100
AcDbCircle
 10
350.6913062041
 20
500.2738476103
 30
0.0
 40
2.499999999999957
  0
CIRCLE
  5
E4
330
1F
100
AcDbEntity
  8
0
  6
Continuous
 62
     7
100
AcDbCircle
 10
371.6913062041
 20
500.2738476103
 30
0.0
 40
10.99999999999994
  0
ARC
  5
E5
330
1F
100
AcDbEntity
  8
0
  6
Continuous
 62
     7
100
AcDbCircle
 10
450.0407898203
 20
6.3188233468
 30
0.0
 40
2.499999999999985
100
AcDbArc
 50
275.1264000819
 51
264.8735999181
  0
ARC
  5
E6
330
1F
100
AcDbEntity
  8
0
  6
Continuous
 62
     7
100
AcDbCircle
 10
496.707456487
 20
33.8288233468
 30
0.0
 40
30.00000000000006
100
AcDbArc
 50
270.0
 51
0.0
  0
ARC
  5
E7
330
1F
100
AcDbEntity
  8
0
  6
Continuous
 62
     7
100
AcDbCircle
 10
496.707456487
 20
173.8288233468
 30
0.0
 40
30.00000000000006
100
AcDbArc
 50
0.0
 51
90.0
  0
ARC
  5
E8
330
1F
100
AcDbEntity
  8
0
  6
Continuous
 62
     7
100
AcDbCircle
 10
216.707456487
 20
173.8288233468
 30
0.0
 40
29.99999999999997
100
AcDbArc
 50
90.0
 51
180.0
  0
ARC
  5
E9
330
1F
100
AcDbEntity
  8
0
  6
Continuous
 62
     7
100
AcDbCircle
 10
216.707456487
 20
33.8288233468
 30
0.0
 40
29.99999999999997
100
AcDbArc
 50
180.0
 51
270.0
  0
ARC
  5
EA
330
1F
100
AcDbEntity
  8
0
  6
Continuous
 62
     7
100
AcDbCircle
 10
263.3741231536
 20
6.3188233468
 30
0.0
 40
2.49999999999998
100
AcDbArc
 50
275.1264000819
 51
264.8735999181
  0
CIRCLE
  5
EB
330
1F
100
AcDbEntity
  8
0
  6
Continuous
 62
     7
100
AcDbCircle
 10
506.707456487
 20
163.8288233468
 30
0.0
 40
3.99999999999999
  0
CIRCLE
  5
EC
330
1F
100
AcDbEntity
  8
0
  6
Continuous
 62
     7
100
AcDbCircle
 10
486.207456487
 20
163.8288233468
 30
0.0
 40
3.99999999999999
  0
CIRCLE
  5
ED
330
1F
100
AcDbEntity
  8
0
  6
Continuous
 62
     7
100
AcDbCircle
 10
506.707456487
 20
78.8288233468
 30
0.0
 40
3.99999999999999
  0
CIRCLE
  5
EE
330
1F
100
AcDbEntity
  8
0
  6
Continuous
 62
     7
100
AcDbCircle
 10
486.207456487
 20
78.8288233468
 30
0.0
 40
3.99999999999999
  0
CIRCLE
  5
EF
330
1F
100
AcDbEntity
  8
0
  6
Continuous
 62
     7
100
AcDbCircle
 10
286.707456487
 20
143.3288233468
 30
0.0
 40
3.999999999999982
  0
CIRCLE
  5
F0
330
1F
100
AcDbEntity
  8
0
  6
Continuous
 62
     7
100
AcDbCircle
 10
286.707456487
 20
163.8288233468
 30
0.0
 40
3.99999999999999
  0
CIRCLE
  5
F1
330
1F
100
AcDbEntity
  8
0
  6
Continuous
 62
     7
100
AcDbCircle
 10
236.707456487
 20
153.8288233468
 30
0.0
 40
3.99999999999999
  0
CIRCLE
  5
F2
330
1F
100
AcDbEntity
  8
0
  6
Continuous
 62
     7
100
AcDbCircle
 10
242.207456487
 20
183.8288233468
 30
0.0
 40
3.99999999999999
  0
CIRCLE
  5
F3
330
1F
100
AcDbEntity
  8
0
  6
Continuous
 62
     7
100
AcDbCircle
 10
221.707456487
 20
183.8288233468
 30
0.0
 40
3.99999999999999
  0
ARC
  5
F4
330
1F
100
AcDbEntity
  8
0
  6
Continuous
 62
     7
100
AcDbCircle
 10
715.225281161
 20
408.2179680129
 30
0.0
 40
30.00000000000006
100
AcDbArc
 50
270.0
 51
0.0
  0
ARC
  5
F5
330
1F
100
AcDbEntity
  8
0
  6
Continuous
 62
     7
100
AcDbCircle
 10
715.225281161
 20
548.2179680129
 30
0.0
 40
30.0
100
AcDbArc
 50
0.0
 51
90.0
  0
ARC
  5
F6
330
1F
100
AcDbEntity
  8
0
  6
Continuous
 62
     7
100
AcDbCircle
 10
435.225281161
 20
548.2179680129
 30
0.0
 40
30.0
100
AcDbArc
 50
90.0
 51
180.0
  0
ARC
  5
F7
330
1F
100
AcDbEntity
  8
0
  6
Continuous
 62
     7
100
AcDbCircle
 10
435.225281161
 20
408.2179680129
 30
0.0
 40
30.00000000000006
100
AcDbArc
 50
180.0
 51
270.0
  0
CIRCLE
  5
F8
330
1F
100
AcDbEntity
  8
0
  6
Continuous
 62
     7
100
AcDbCircle
 10
607.025281161
 20
421.6179680129
 30
0.0
 40
2.000000000000066
  0
CIRCLE
  5
F9
330
1F
100
AcDbEntity
  8
0
  6
Continuous
 62
     7
100
AcDbCircle
 10
590.225281161
 20
403.2179680129
 30
0.0
 40
2.500000000000012
  0
CIRCLE
  5
FA
330
1F
100
AcDbEntity
  8
0
  6
Continuous
 62
     7
100
AcDbCircle
 10
560.225281161
 20
403.2179680129
 30
0.0
 40
2.50000000000012
  0
CIRCLE
  5
FB
330
1F
100
AcDbEntity
  8
0
  6
Continuous
 62
     7
100
AcDbCircle
 10
649.225281161
 20
403.2179680129
 30
0.0
 40
2.000000000000175
  0
CIRCLE
  5
FC
330
1F
100
AcDbEntity
  8
0
  6
Continuous
 62
     7
100
AcDbCircle
 10
685.225281161
 20
403.2179680129
 30
0.0
 40
1.999999999999941
  0
CIRCLE
  5
FD
330
1F
100
AcDbEntity
  8
0
  6
Continuous
 62
     7
100
AcDbCircle
 10
685.225281161
 20
439.2179680129
 30
0.0
 40
1.999999999999941
  0
CIRCLE
  5
FE
330
1F
100
AcDbEntity
  8
0
  6
Continuous
 62
     7
100
AcDbCircle
 10
704.725281161
 20
538.2179680129
 30
0.0
 40
3.999999999999957
  0
CIRCLE
  5
FF
330
1F
100
AcDbEntity
  8
0
  6
Continuous
 62
     7
100
AcDbCircle
 10
725.225281161
 20
538.2179680129
 30
0.0
 40
3.999999999999957
  0
CIRCLE
  5
100
330
1F
100
AcDbEntity
  8
0
  6
Continuous
 62
     7
100
AcDbCircle
 10
725.225281161
 20
453.2179680129
 30
0.0
 40
3.99999999999999
  0
CIRCLE
  5
101
330
1F
100
AcDbEntity
  8
0
  6
Continuous
 62
     7
100
AcDbCircle
 10
704.725281161
 20
453.2179680129
 30
0.0
 40
3.99999999999999
  0
CIRCLE
  5
102
330
1F
100
AcDbEntity
  8
0
  6
Continuous
 62
     7
100
AcDbCircle
 10
649.225281161
 20
439.2179680129
 30
0.0
 40
2.000000000000175
  0
CIRCLE
  5
103
330
1F
100
AcDbEntity
  8
0
  6
Continuous
 62
     7
100
AcDbCircle
 10
597.275281161
 20
475.6312083578
 30
0.0
 40
2.000000000000049
  0
CIRCLE
  5
104
330
1F
100
AcDbEntity
  8
0
  6
Continuous
 62
     7
100
AcDbCircle
 10
638.5220308148
 20
489.7128578541
 30
0.0
 40
2.500000000000012
  0
CIRCLE
  5
105
330
1F
100
AcDbEntity
  8
0
  6
Continuous
 62
     7
100
AcDbCircle
 10
665.225281161
 20
561.2179680129
 30
0.0
 40
2.000000000000033
  0
CIRCLE
  5
106
330
1F
100
AcDbEntity
  8
0
  6
Continuous
 62
     7
100
AcDbCircle
 10
665.225281161
 20
573.2179680129
 30
0.0
 40
2.000000000000033
  0
CIRCLE
  5
107
330
1F
100
AcDbEntity
  8
0
  6
Continuous
 62
     7
100
AcDbCircle
 10
641.225281161
 20
573.2179680129
 30
0.0
 40
2.000000000000033
  0
CIRCLE
  5
108
330
1F
100
AcDbEntity
  8
0
  6
Continuous
 62
     7
100
AcDbCircle
 10
641.225281161
 20
561.2179680129
 30
0.0
 40
2.000000000000033
  0
CIRCLE
  5
109
330
1F
100
AcDbEntity
  8
0
  6
Continuous
 62
     7
100
AcDbCircle
 10
583.225281161
 20
545.2179680129
 30
0.0
 40
1.499999999999979
  0
CIRCLE
  5
10A
330
1F
100
AcDbEntity
  8
0
  6
Continuous
 62
     7
100
AcDbCircle
 10
583.225281161
 20
489.2179680129
 30
0.0
 40
1.499999999999979
  0
CIRCLE
  5
10B
330
1F
100
AcDbEntity
  8
0
  6
Continuous
 62
     7
100
AcDbCircle
 10
575.225281161
 20
482.2179680129
 30
0.0
 40
3.99999999999999
  0
CIRCLE
  5
10C
330
1F
100
AcDbEntity
  8
0
  6
Continuous
 62
     7
100
AcDbCircle
 10
554.075281161
 20
462.0579680129
 30
0.0
 40
2.000000000000049
  0
CIRCLE
  5
10D
330
1F
100
AcDbEntity
  8
0
  6
Continuous
 62
     7
100
AcDbCircle
 10
555.225281161
 20
517.2179680129
 30
0.0
 40
4.000000000000099
  0
CIRCLE
  5
10E
330
1F
100
AcDbEntity
  8
0
  6
Continuous
 62
     7
100
AcDbCircle
 10
554.075281161
 20
566.0579680129
 30
0.0
 40
2.000000000000033
  0
CIRCLE
  5
10F
330
1F
100
AcDbEntity
  8
0
  6
Continuous
 62
     7
100
AcDbCircle
 10
527.225281161
 20
545.2179680129
 30
0.0
 40
1.499999999999979
  0
CIRCLE
  5
110
330
1F
100
AcDbEntity
  8
0
  6
Continuous
 62
     7
100
AcDbCircle
 10
538.015281161
 20
514.0579680129
 30
0.0
 40
10.00000000000001
  0
CIRCLE
  5
111
330
1F
100
AcDbEntity
  8
0
  6
Continuous
 62
     7
100
AcDbCircle
 10
527.225281161
 20
489.2179680129
 30
0.0
 40
1.499999999999979
  0
CIRCLE
  5
112
330
1F
100
AcDbEntity
  8
0
  6
Continuous
 62
     7
100
AcDbCircle
 10
500.075281161
 20
462.0579680129
 30
0.0
 40
1.999999999999995
  0
CIRCLE
  5
113
330
1F
100
AcDbEntity
  8
0
  6
Continuous
 62
     7
100
AcDbCircle
 10
502.5061759955
 20
405.3779731055
 30
0.0
 40
1.500000000000033
  0
CIRCLE
  5
114
330
1F
100
AcDbEntity
  8
0
  6
Continuous
 62
     7
100
AcDbCircle
 10
410.205281161
 20
404.7779680129
 30
0.0
 40
1.500000000000033
  0
CIRCLE
  5
115
330
1F
100
AcDbEntity
  8
0
  6
Continuous
 62
     7
100
AcDbCircle
 10
434.235281161
 20
418.8744703694
 30
0.0
 40
3.500000000000028
  0
CIRCLE
  5
116
330
1F
100
AcDbEntity
  8
0
  6
Continuous
 62
     7
100
AcDbCircle
 10
410.205281161
 20
490.1279731055
 30
0.0
 40
1.500000000000033
  0
CIRCLE
  5
117
330
1F
100
AcDbEntity
  8
0
  6
Continuous
 62
     7
100
AcDbCircle
 10
467.3056859399
 20
490.1279731055
 30
0.0
 40
1.499999999999979
  0
CIRCLE
  5
118
330
1F
100
AcDbEntity
  8
0
  6
Continuous
 62
     7
100
AcDbCircle
 10
472.075281161
 20
514.0579680129
 30
0.0
 40
4.050000000000002
  0
CIRCLE
  5
119
330
1F
100
AcDbEntity
  8
0
  6
Continuous
 62
     7
100
AcDbCircle
 10
505.225281161
 20
517.7179680129
 30
0.0
 40
3.99999999999999
  0
CIRCLE
  5
11A
330
1F
100
AcDbEntity
  8
0
  6
Continuous
 62
     7
100
AcDbCircle
 10
505.225281161
 20
538.2179680129
 30
0.0
 40
3.999999999999957
  0
CIRCLE
  5
11B
330
1F
100
AcDbEntity
  8
0
  6
Continuous
 62
     7
100
AcDbCircle
 10
514.225281161
 20
561.2179680129
 30
0.0
 40
2.000000000000033
  0
CIRCLE
  5
11C
330
1F
100
AcDbEntity
  8
0
  6
Continuous
 62
     7
100
AcDbCircle
 10
514.225281161
 20
573.2179680129
 30
0.0
 40
2.000000000000033
  0
CIRCLE
  5
11D
330
1F
100
AcDbEntity
  8
0
  6
Continuous
 62
     7
100
AcDbCircle
 10
490.225281161
 20
573.2179680129
 30
0.0
 40
1.999999999999978
  0
CIRCLE
  5
11E
330
1F
100
AcDbEntity
  8
0
  6
Continuous
 62
     7
100
AcDbCircle
 10
490.225281161
 20
561.2179680129
 30
0.0
 40
1.999999999999978
  0
CIRCLE
  5
11F
330
1F
100
AcDbEntity
  8
0
  6
Continuous
 62
     7
100
AcDbCircle
 10
455.225281161
 20
528.2179680129
 30
0.0
 40
4.000000000000044
  0
CIRCLE
  5
120
330
1F
100
AcDbEntity
  8
0
  6
Continuous
 62
     7
100
AcDbCircle
 10
450.075281161
 20
566.0579680129
 30
0.0
 40
1.999999999999978
  0
CIRCLE
  5
121
330
1F
100
AcDbEntity
  8
0
  6
Continuous
 62
     7
100
AcDbCircle
 10
460.725281161
 20
558.2179680129
 30
0.0
 40
4.000000000000044
  0
CIRCLE
  5
122
330
1F
100
AcDbEntity
  8
0
  6
Continuous
 62
     7
100
AcDbCircle
 10
440.225281161
 20
558.2179680129
 30
0.0
 40
3.99999999999999
  0
LINE
  5
123
330
1F
100
AcDbEntity
  8
0
  6
Continuous
 62
     7
100
AcDbLine
 10
23.4996890017
 20
566.4485191182
 30
0.0
 11
23.4996890017
 21
536.4485191182
 31
0.0
  0
LINE
  5
124
330
1F
100
AcDbEntity
  8
0
  6
Continuous
 62
     7
100
AcDbLine
 10
33.4996890017
 20
526.4485191182
 30
0.0
 11
63.4996890017
 21
526.4485191182
 31
0.0
  0
LINE
  5
125
330
1F
100
AcDbEntity
  8
0
  6
Continuous
 62
     7
100
AcDbLine
 10
73.4996890017
 20
536.4485191182
 30
0.0
 11
98.4996890017
 21
536.4485191182
 31
0.0
  0
LINE
  5
126
330
1F
100
AcDbEntity
  8
0
  6
Continuous
 62
     7
100
AcDbLine
 10
103.4996890017
 20
541.4485191182
 30
0.0
 11
103.4996890017
 21
561.4485191182
 31
0.0
  0
LINE
  5
127
330
1F
100
AcDbEntity
  8
0
  6
Continuous
 62
     7
100
AcDbLine
 10
98.4996890017
 20
566.4485191182
 30
0.0
 11
73.4996890017
 21
566.4485191182
 31
0.0
  0
LINE
  5
128
330
1F
100
AcDbEntity
  8
0
  6
Continuous
 62
     7
100
AcDbLine
 10
63.4996890017
 20
576.4485191182
 30
0.0
 11
33.4996890017
 21
576.4485191182
 31
0.0
  0
LINE
  5
129
330
1F
100
AcDbEntity
  8
0
  6
Continuous
 62
     7
100
AcDbLine
 10
86.120614724
 20
434.7355786523
 30
0.0
 11
86.120614724
 21
484.7355786523
 31
0.0
  0
LINE
  5
12A
330
1F
100
AcDbEntity
  8
0
  6
Continuous
 62
     7
100
AcDbLine
 10
76.120614724
 20
494.7355786523
 30
0.0
 11
76.120614724
 21
504.7355786523
 31
0.0
  0
LINE
  5
12B
330
1F
100
AcDbEntity
  8
0
  6
Continuous
 62
     7
100
AcDbLine
 10
66.120614724
 20
514.7355786523
 30
0.0
 11
36.120614724
 21
514.7355786523
 31
0.0
  0
LINE
  5
12C
330
1F
100
AcDbEntity
  8
0
  6
Continuous
 62
     7
100
AcDbLine
 10
26.120614724
 20
504.7355786523
 30
0.0
 11
26.120614724
 21
494.7355786523
 31
0.0
  0
LINE
  5
12D
330
1F
100
AcDbEntity
  8
0
  6
Continuous
 62
     7
100
AcDbLine
 10
16.120614724
 20
484.7355786523
 30
0.0
 11
16.120614724
 21
434.7355786523
 31
0.0
  0
LINE
  5
12E
330
1F
100
AcDbEntity
  8
0
  6
Continuous
 62
     7
100
AcDbLine
 10
26.120614724
 20
424.7355786523
 30
0.0
 11
63.620614724
 21
424.7355786523
 31
0.0
  0
LINE
  5
12F
330
1F
100
AcDbEntity
  8
0
  6
Continuous
 62
     7
100
AcDbLine
 10
190.4925683508
 20
571.9651679524
 30
0.0
 11
190.4925683508
 21
576.9651679524
 31
0.0
  0
LINE
  5
130
330
1F
100
AcDbEntity
  8
0
  6
Continuous
 62
     7
100
AcDbLine
 10
190.4925683508
 20
576.9651679524
 30
0.0
 11
118.8259016841
 21
576.9651679524
 31
0.0
  0
LINE
  5
131
330
1F
100
AcDbEntity
  8
0
  6
Continuous
 62
     7
100
AcDbLine
 10
118.8259016841
 20
576.9651679524
 30
0.0
 11
118.8259016841
 21
560.2985012857
 31
0.0
  0
LINE
  5
132
330
1F
100
AcDbEntity
  8
0
  6
Continuous
 62
     7
100
AcDbLine
 10
118.8259016841
 20
560.2985012857
 30
0.0
 11
113.8259016841
 21
560.2985012857
 31
0.0
  0
LINE
  5
133
330
1F
100
AcDbEntity
  8
0
  6
Continuous
 62
     7
100
AcDbLine
 10
113.8259016841
 20
560.2985012857
 30
0.0
 11
113.8259016841
 21
543.6318346191
 31
0.0
  0
LINE
  5
134
330
1F
100
AcDbEntity
  8
0
  6
Continuous
 62
     7
100
AcDbLine
 10
113.8259016841
 20
543.6318346191
 30
0.0
 11
118.8259016841
 21
543.6318346191
 31
0.0
  0
LINE
  5
135
330
1F
100
AcDbEntity
  8
0
  6
Continuous
 62
     7
100
AcDbLine
 10
118.8259016841
 20
543.6318346191
 30
0.0
 11
118.8259016841
 21
526.9651679524
 31
0.0
  0
LINE
  5
136
330
1F
100
AcDbEntity
  8
0
  6
Continuous
 62
     7
100
AcDbLine
 10
118.8259016841
 20
526.9651679524
 30
0.0
 11
149.6592350174
 21
526.9651679524
 31
0.0
  0
LINE
  5
137
330
1F
100
AcDbEntity
  8
0
  6
Continuous
 62
     7
100
AcDbLine
 10
149.6592350174
 20
526.9651679524
 30
0.0
 11
149.6592350174
 21
530.4651679524
 31
0.0
  0
LINE
  5
138
330
1F
100
AcDbEntity
  8
0
  6
Continuous
 62
     7
100
AcDbLine
 10
149.6592350174
 20
530.4651679524
 30
0.0
 11
148.1592350174
 21
530.4651679524
 31
0.0
  0
LINE
  5
139
330
1F
100
AcDbEntity
  8
0
  6
Continuous
 62
     7
100
AcDbLine
 10
148.1592350174
 20
530.4651679524
 30
0.0
 11
148.1592350174
 21
533.2651679524
 31
0.0
  0
LINE
  5
13A
330
1F
100
AcDbEntity
  8
0
  6
Continuous
 62
     7
100
AcDbLine
 10
148.1592350174
 20
533.2651679524
 30
0.0
 11
149.6592350174
 21
533.2651679524
 31
0.0
  0
LINE
  5
13B
330
1F
100
AcDbEntity
  8
0
  6
Continuous
 62
     7
100
AcDbLine
 10
149.6592350174
 20
533.2651679524
 30
0.0
 11
149.6592350174
 21
535.9651679524
 31
0.0
  0
LINE
  5
13C
330
1F
100
AcDbEntity
  8
0
  6
Continuous
 62
     7
100
AcDbLine
 10
149.6592350174
 20
535.9651679524
 30
0.0
 11
154.6592350174
 21
535.9651679524
 31
0.0
  0
LINE
  5
13D
330
1F
100
AcDbEntity
  8
0
  6
Continuous
 62
     7
100
AcDbLine
 10
154.6592350174
 20
535.9651679524
 30
0.0
 11
154.6592350174
 21
533.2651679524
 31
0.0
  0
LINE
  5
13E
330
1F
100
AcDbEntity
  8
0
  6
Continuous
 62
     7
100
AcDbLine
 10
154.6592350174
 20
533.2651679524
 30
0.0
 11
156.1592350174
 21
533.2651679524
 31
0.0
  0
LINE
  5
13F
330
1F
100
AcDbEntity
  8
0
  6
Continuous
 62
     7
100
AcDbLine
 10
156.1592350174
 20
533.2651679524
 30
0.0
 11
156.1592350174
 21
530.4651679524
 31
0.0
  0
LINE
  5
140
330
1F
100
AcDbEntity
  8
0
  6
Continuous
 62
     7
100
AcDbLine
 10
156.1592350174
 20
530.4651679524
 30
0.0
 11
154.6592350174
 21
530.4651679524
 31
0.0
  0
LINE
  5
141
330
1F
100
AcDbEntity
  8
0
  6
Continuous
 62
     7
100
AcDbLine
 10
154.6592350174
 20
530.4651679524
 30
0.0
 11
154.6592350174
 21
526.9651679524
 31
0.0
  0
LINE
  5
142
330
1F
100
AcDbEntity
  8
0
  6
Continuous
 62
     7
100
AcDbLine
 10
154.6592350174
 20
526.9651679524
 30
0.0
 11
190.4925683508
 21
526.9651679524
 31
0.0
  0
LINE
  5
143
330
1F
100
AcDbEntity
  8
0
  6
Continuous
 62
     7
100
AcDbLine
 10
190.4925683508
 20
526.9651679524
 30
0.0
 11
190.4925683508
 21
521.9651679524
 31
0.0
  0
LINE
  5
144
330
1F
100
AcDbEntity
  8
0
  6
Continuous
 62
     7
100
AcDbLine
 10
190.4925683508
 20
521.9651679524
 30
0.0
 11
267.1592350174
 21
521.9651679524
 31
0.0
  0
LINE
  5
145
330
1F
100
AcDbEntity
  8
0
  6
Continuous
 62
     7
100
AcDbLine
 10
267.1592350174
 20
521.9651679524
 30
0.0
 11
267.1592350174
 21
526.9651679524
 31
0.0
  0
LINE
  5
146
330
1F
100
AcDbEntity
  8
0
  6
Continuous
 62
     7
100
AcDbLine
 10
267.1592350174
 20
526.9651679524
 30
0.0
 11
302.9925683508
 21
526.9651679524
 31
0.0
  0
LINE
  5
147
330
1F
100
AcDbEntity
  8
0
  6
Continuous
 62
     7
100
AcDbLine
 10
302.9925683508
 20
526.9651679524
 30
0.0
 11
302.9925683508
 21
530.4651679524
 31
0.0
  0
LINE
  5
148
330
1F
100
AcDbEntity
  8
0
  6
Continuous
 62
     7
100
AcDbLine
 10
302.9925683508
 20
530.4651679524
 30
0.0
 11
301.4925683508
 21
530.4651679524
 31
0.0
  0
LINE
  5
149
330
1F
100
AcDbEntity
  8
0
  6
Continuous
 62
     7
100
AcDbLine
 10
301.4925683508
 20
530.4651679524
 30
0.0
 11
301.4925683508
 21
533.2651679524
 31
0.0
  0
LINE
  5
14A
330
1F
100
AcDbEntity
  8
0
  6
Continuous
 62
     7
100
AcDbLine
 10
301.4925683508
 20
533.2651679524
 30
0.0
 11
302.9925683508
 21
533.2651679524
 31
0.0
  0
LINE
  5
14B
330
1F
100
AcDbEntity
  8
0
  6
Continuous
 62
     7
100
AcDbLine
 10
302.9925683508
 20
533.2651679524
 30
0.0
 11
302.9925683508
 21
535.9651679524
 31
0.0
  0
LINE
  5
14C
330
1F
100
AcDbEntity
  8
0
  6
Continuous
 62
     7
100
AcDbLine
 10
302.9925683508
 20
535.9651679524
 30
0.0
 11
307.9925683508
 21
535.9651679524
 31
0.0
  0
LINE
  5
14D
330
1F
100
AcDbEntity
  8
0
  6
Continuous
 62
     7
100
AcDbLine
 10
307.9925683508
 20
535.9651679524
 30
0.0
 11
307.9925683508
 21
533.2651679524
 31
0.0
  0
LINE
  5
14E
330
1F
100
AcDbEntity
  8
0
  6
Continuous
 62
     7
100
AcDbLine
 10
307.9925683508
 20
533.2651679524
 30
0.0
 11
309.4925683508
 21
533.2651679524
 31
0.0
  0
LINE
  5
14F
330
1F
100
AcDbEntity
  8
0
  6
Continuous
 62
     7
100
AcDbLine
 10
309.4925683508
 20
533.2651679524
 30
0.0
 11
309.4925683508
 21
530.4651679524
 31
0.0
  0
LINE
  5
150
330
1F
100
AcDbEntity
  8
0
  6
Continuous
 62
     7
100
AcDbLine
 10
309.4925683508
 20
530.4651679524
 30
0.0
 11
307.9925683508
 21
530.4651679524
 31
0.0
  0
LINE
  5
151
330
1F
100
AcDbEntity
  8
0
  6
Continuous
 62
     7
100
AcDbLine
 10
307.9925683508
 20
530.4651679524
 30
0.0
 11
307.9925683508
 21
526.9651679524
 31
0.0
  0
LINE
  5
152
330
1F
100
AcDbEntity
  8
0
  6
Continuous
 62
     7
100
AcDbLine
 10
307.9925683508
 20
526.9651679524
 30
0.0
 11
338.8259016841
 21
526.9651679524
 31
0.0
  0
LINE
  5
153
330
1F
100
AcDbEntity
  8
0
  6
Continuous
 62
     7
100
AcDbLine
 10
338.8259016841
 20
526.9651679524
 30
0.0
 11
338.8259016841
 21
543.6318346191
 31
0.0
  0
LINE
  5
154
330
1F
100
AcDbEntity
  8
0
  6
Continuous
 62
     7
100
AcDbLine
 10
338.8259016841
 20
543.6318346191
 30
0.0
 11
343.8259016841
 21
543.6318346191
 31
0.0
  0
LINE
  5
155
330
1F
100
AcDbEntity
  8
0
  6
Continuous
 62
     7
100
AcDbLine
 10
343.8259016841
 20
543.6318346191
 30
0.0
 11
343.8259016841
 21
560.2985012857
 31
0.0
  0
LINE
  5
156
330
1F
100
AcDbEntity
  8
0
  6
Continuous
 62
     7
100
AcDbLine
 10
343.8259016841
 20
560.2985012857
 30
0.0
 11
338.8259016841
 21
560.2985012857
 31
0.0
  0
LINE
  5
157
330
1F
100
AcDbEntity
  8
0
  6
Continuous
 62
     7
100
AcDbLine
 10
338.8259016841
 20
560.2985012857
 30
0.0
 11
338.8259016841
 21
576.9651679524
 31
0.0
  0
LINE
  5
158
330
1F
100
AcDbEntity
  8
0
  6
Continuous
 62
     7
100
AcDbLine
 10
338.8259016841
 20
576.9651679524
 30
0.0
 11
267.1592350174
 21
576.9651679524
 31
0.0
  0
LINE
  5
159
330
1F
100
AcDbEntity
  8
0
  6
Continuous
 62
     7
100
AcDbLine
 10
267.1592350174
 20
576.9651679524
 30
0.0
 11
267.1592350174
 21
571.9651679524
 31
0.0
  0
LINE
  5
15A
330
1F
100
AcDbEntity
  8
0
  6
Continuous
 62
     7
100
AcDbLine
 10
267.1592350174
 20
571.9651679524
 30
0.0
 11
190.4925683508
 21
571.9651679524
 31
0.0
  0
LINE
  5
15B
330
1F
100
AcDbEntity
  8
0
  6
Continuous
 62
     7
100
AcDbLine
 10
191.0072186409
 20
509.6924828503
 30
0.0
 11
191.0072186409
 21
514.6924828503
 31
0.0
  0
LINE
  5
15C
330
1F
100
AcDbEntity
  8
0
  6
Continuous
 62
     7
100
AcDbLine
 10
191.0072186409
 20
514.6924828503
 30
0.0
 11
119.3405519742
 21
514.6924828503
 31
0.0
  0
LINE
  5
15D
330
1F
100
AcDbEntity
  8
0
  6
Continuous
 62
     7
100
AcDbLine
 10
119.3405519742
 20
514.6924828503
 30
0.0
 11
119.3405519742
 21
498.0258161837
 31
0.0
  0
LINE
  5
15E
330
1F
100
AcDbEntity
  8
0
  6
Continuous
 62
     7
100
AcDbLine
 10
119.3405519742
 20
498.0258161837
 30
0.0
 11
114.3405519742
 21
498.0258161837
 31
0.0
  0
LINE
  5
15F
330
1F
100
AcDbEntity
  8
0
  6
Continuous
 62
     7
100
AcDbLine
 10
114.3405519742
 20
498.0258161837
 30
0.0
 11
114.3405519742
 21
481.359149517
 31
0.0
  0
LINE
  5
160
330
1F
100
AcDbEntity
  8
0
  6
Continuous
 62
     7
100
AcDbLine
 10
114.3405519742
 20
481.359149517
 30
0.0
 11
119.3405519742
 21
481.359149517
 31
0.0
  0
LINE
  5
161
330
1F
100
AcDbEntity
  8
0
  6
Continuous
 62
     7
100
AcDbLine
 10
119.3405519742
 20
481.359149517
 30
0.0
 11
119.3405519742
 21
464.6924828503
 31
0.0
  0
LINE
  5
162
330
1F
100
AcDbEntity
  8
0
  6
Continuous
 62
     7
100
AcDbLine
 10
119.3405519742
 20
464.6924828503
 30
0.0
 11
150.1738853075
 21
464.6924828503
 31
0.0
  0
LINE
  5
163
330
1F
100
AcDbEntity
  8
0
  6
Continuous
 62
     7
100
AcDbLine
 10
150.1738853075
 20
464.6924828503
 30
0.0
 11
150.1738853075
 21
468.1924828503
 31
0.0
  0
LINE
  5
164
330
1F
100
AcDbEntity
  8
0
  6
Continuous
 62
     7
100
AcDbLine
 10
150.1738853075
 20
468.1924828503
 30
0.0
 11
148.6738853075
 21
468.1924828503
 31
0.0
  0
LINE
  5
165
330
1F
100
AcDbEntity
  8
0
  6
Continuous
 62
     7
100
AcDbLine
 10
148.6738853075
 20
468.1924828503
 30
0.0
 11
148.6738853075
 21
470.9924828503
 31
0.0
  0
LINE
  5
166
330
1F
100
AcDbEntity
  8
0
  6
Continuous
 62
     7
100
AcDbLine
 10
148.6738853075
 20
470.9924828503
 30
0.0
 11
150.1738853075
 21
470.9924828503
 31
0.0
  0
LINE
  5
167
330
1F
100
AcDbEntity
  8
0
  6
Continuous
 62
     7
100
AcDbLine
 10
150.1738853075
 20
470.9924828503
 30
0.0
 11
150.1738853075
 21
473.6924828503
 31
0.0
  0
LINE
  5
168
330
1F
100
AcDbEntity
  8
0
  6
Continuous
 62
     7
100
AcDbLine
 10
150.1738853075
 20
473.6924828503
 30
0.0
 11
155.1738853075
 21
473.6924828503
 31
0.0
  0
LINE
  5
169
330
1F
100
AcDbEntity
  8
0
  6
Continuous
 62
     7
100
AcDbLine
 10
155.1738853075
 20
473.6924828503
 30
0.0
 11
155.1738853075
 21
470.9924828503
 31
0.0
  0
LINE
  5
16A
330
1F
100
AcDbEntity
  8
0
  6
Continuous
 62
     7
100
AcDbLine
 10
155.1738853075
 20
470.9924828503
 30
0.0
 11
156.6738853075
 21
470.9924828503
 31
0.0
  0
LINE
  5
16B
330
1F
100
AcDbEntity
  8
0
  6
Continuous
 62
     7
100
AcDbLine
 10
156.6738853075
 20
470.9924828503
 30
0.0
 11
156.6738853075
 21
468.1924828503
 31
0.0
  0
LINE
  5
16C
330
1F
100
AcDbEntity
  8
0
  6
Continuous
 62
     7
100
AcDbLine
 10
156.6738853075
 20
468.1924828503
 30
0.0
 11
155.1738853075
 21
468.1924828503
 31
0.0
  0
LINE
  5
16D
330
1F
100
AcDbEntity
  8
0
  6
Continuous
 62
     7
100
AcDbLine
 10
155.1738853075
 20
468.1924828503
 30
0.0
 11
155.1738853075
 21
464.6924828503
 31
0.0
  0
LINE
  5
16E
330
1F
100
AcDbEntity
  8
0
  6
Continuous
 62
     7
100
AcDbLine
 10
155.1738853075
 20
464.6924828503
 30
0.0
 11
191.0072186409
 21
464.6924828503
 31
0.0
  0
LINE
  5
16F
330
1F
100
AcDbEntity
  8
0
  6
Continuous
 62
     7
100
AcDbLine
 10
191.0072186409
 20
464.6924828503
 30
0.0
 11
191.0072186409
 21
459.6924828503
 31
0.0
  0
LINE
  5
170
330
1F
100
AcDbEntity
  8
0
  6
Continuous
 62
     7
100
AcDbLine
 10
191.0072186409
 20
459.6924828503
 30
0.0
 11
267.6738853075
 21
459.6924828503
 31
0.0
  0
LINE
  5
171
330
1F
100
AcDbEntity
  8
0
  6
Continuous
 62
     7
100
AcDbLine
 10
267.6738853075
 20
459.6924828503
 30
0.0
 11
267.6738853075
 21
464.6924828503
 31
0.0
  0
LINE
  5
172
330
1F
100
AcDbEntity
  8
0
  6
Continuous
 62
     7
100
AcDbLine
 10
267.6738853075
 20
464.6924828503
 30
0.0
 11
303.5072186409
 21
464.6924828503
 31
0.0
  0
LINE
  5
173
330
1F
100
AcDbEntity
  8
0
  6
Continuous
 62
     7
100
AcDbLine
 10
303.5072186409
 20
464.6924828503
 30
0.0
 11
303.5072186409
 21
468.1924828503
 31
0.0
  0
LINE
  5
174
330
1F
100
AcDbEntity
  8
0
  6
Continuous
 62
     7
100
AcDbLine
 10
303.5072186409
 20
468.1924828503
 30
0.0
 11
302.0072186409
 21
468.1924828503
 31
0.0
  0
LINE
  5
175
330
1F
100
AcDbEntity
  8
0
  6
Continuous
 62
     7
100
AcDbLine
 10
302.0072186409
 20
468.1924828503
 30
0.0
 11
302.0072186409
 21
470.9924828503
 31
0.0
  0
LINE
  5
176
330
1F
100
AcDbEntity
  8
0
  6
Continuous
 62
     7
100
AcDbLine
 10
302.0072186409
 20
470.9924828503
 30
0.0
 11
303.5072186409
 21
470.9924828503
 31
0.0
  0
LINE
  5
177
330
1F
100
AcDbEntity
  8
0
  6
Continuous
 62
     7
100
AcDbLine
 10
303.5072186409
 20
470.9924828503
 30
0.0
 11
303.5072186409
 21
473.6924828503
 31
0.0
  0
LINE
  5
178
330
1F
100
AcDbEntity
  8
0
  6
Continuous
 62
     7
100
AcDbLine
 10
303.5072186409
 20
473.6924828503
 30
0.0
 11
308.5072186409
 21
473.6924828503
 31
0.0
  0
LINE
  5
179
330
1F
100
AcDbEntity
  8
0
  6
Continuous
 62
     7
100
AcDbLine
 10
308.5072186409
 20
473.6924828503
 30
0.0
 11
308.5072186409
 21
470.9924828503
 31
0.0
  0
LINE
  5
17A
330
1F
100
AcDbEntity
  8
0
  6
Continuous
 62
     7
100
AcDbLine
 10
308.5072186409
 20
470.9924828503
 30
0.0
 11
310.0072186409
 21
470.9924828503
 31
0.0
  0
LINE
  5
17B
330
1F
100
AcDbEntity
  8
0
  6
Continuous
 62
     7
100
AcDbLine
 10
310.0072186409
 20
470.9924828503
 30
0.0
 11
310.0072186409
 21
468.1924828503
 31
0.0
  0
LINE
  5
17C
330
1F
100
AcDbEntity
  8
0
  6
Continuous
 62
     7
100
AcDbLine
 10
310.0072186409
 20
468.1924828503
 30
0.0
 11
308.5072186409
 21
468.1924828503
 31
0.0
  0
LINE
  5
17D
330
1F
100
AcDbEntity
  8
0
  6
Continuous
 62
     7
100
AcDbLine
 10
308.5072186409
 20
468.1924828503
 30
0.0
 11
308.5072186409
 21
464.6924828503
 31
0.0
  0
LINE
  5
17E
330
1F
100
AcDbEntity
  8
0
  6
Continuous
 62
     7
100
AcDbLine
 10
308.5072186409
 20
464.6924828503
 30
0.0
 11
339.3405519742
 21
464.6924828503
 31
0.0
  0
LINE
  5
17F
330
1F
100
AcDbEntity
  8
0
  6
Continuous
 62
     7
100
AcDbLine
 10
339.3405519742
 20
464.6924828503
 30
0.0
 11
339.3405519742
 21
481.359149517
 31
0.0
  0
LINE
  5
180
330
1F
100
AcDbEntity
  8
0
  6
Continuous
 62
     7
100
AcDbLine
 10
339.3405519742
 20
481.359149517
 30
0.0
 11
344.3405519742
 21
481.359149517
 31
0.0
  0
LINE
  5
181
330
1F
100
AcDbEntity
  8
0
  6
Continuous
 62
     7
100
AcDbLine
 10
344.3405519742
 20
481.359149517
 30
0.0
 11
344.3405519742
 21
498.0258161837
 31
0.0
  0
LINE
  5
182
330
1F
100
AcDbEntity
  8
0
  6
Continuous
 62
     7
100
AcDbLine
 10
344.3405519742
 20
498.0258161837
 30
0.0
 11
339.3405519742
 21
498.0258161837
 31
0.0
  0
LINE
  5
183
330
1F
100
AcDbEntity
  8
0
  6
Continuous
 62
     7
100
AcDbLine
 10
339.3405519742
 20
498.0258161837
 30
0.0
 11
339.3405519742
 21
514.6924828503
 31
0.0
  0
LINE
  5
184
330
1F
100
AcDbEntity
  8
0
  6
Continuous
 62
     7
100
AcDbLine
 10
339.3405519742
 20
514.6924828503
 30
0.0
 11
267.6738853075
 21
514.6924828503
 31
0.0
  0
LINE
  5
185
330
1F
100
AcDbEntity
  8
0
  6
Continuous
 62
     7
100
AcDbLine
 10
267.6738853075
 20
514.6924828503
 30
0.0
 11
267.6738853075
 21
509.6924828503
 31
0.0
  0
LINE
  5
186
330
1F
100
AcDbEntity
  8
0
  6
Continuous
 62
     7
100
AcDbLine
 10
267.6738853075
 20
509.6924828503
 30
0.0
 11
191.0072186409
 21
509.6924828503
 31
0.0
  0
LINE
  5
187
330
1F
100
AcDbEntity
  8
0
  6
Continuous
 62
     7
100
AcDbLine
 10
85.4601152343
 20
307.0629911787
 30
0.0
 11
85.4601152343
 21
317.0629911787
 31
0.0
  0
LINE
  5
188
330
1F
100
AcDbEntity
  8
0
  6
Continuous
 62
     7
100
AcDbLine
 10
95.4601152343
 20
327.0629911787
 30
0.0
 11
125.4601152343
 21
327.0629911787
 31
0.0
  0
LINE
  5
189
330
1F
100
AcDbEntity
  8
0
  6
Continuous
 62
     7
100
AcDbLine
 10
135.4601152343
 20
337.0629911787
 30
0.0
 11
135.4601152343
 21
407.0629911787
 31
0.0
  0
LINE
  5
18A
330
1F
100
AcDbEntity
  8
0
  6
Continuous
 62
     7
100
AcDbLine
 10
125.4601152343
 20
417.0629911787
 30
0.0
 11
25.4601152343
 21
417.0629911787
 31
0.0
  0
LINE
  5
18B
330
1F
100
AcDbEntity
  8
0
  6
Continuous
 62
     7
100
AcDbLine
 10
15.4601152343
 20
407.0629911787
 30
0.0
 11
15.4601152343
 21
307.0629911787
 31
0.0
  0
LINE
  5
18C
330
1F
100
AcDbEntity
  8
0
  6
Continuous
 62
     7
100
AcDbLine
 10
25.4601152343
 20
297.0629911787
 30
0.0
 11
75.4601152343
 21
297.0629911787
 31
0.0
  0
LINE
  5
18D
330
1F
100
AcDbEntity
  8
0
  6
Continuous
 62
     7
100
AcDbLine
 10
198.4139603589
 20
451.390497168
 30
0.0
 11
198.4139603589
 21
446.390497168
 31
0.0
  0
LINE
  5
18E
330
1F
100
AcDbEntity
  8
0
  6
Continuous
 62
     7
100
AcDbLine
 10
198.4139603589
 20
446.390497168
 30
0.0
 11
171.7472936923
 21
446.390497168
 31
0.0
  0
LINE
  5
18F
330
1F
100
AcDbEntity
  8
0
  6
Continuous
 62
     7
100
AcDbLine
 10
171.7472936923
 20
446.390497168
 30
0.0
 11
171.7472936923
 21
451.390497168
 31
0.0
  0
LINE
  5
190
330
1F
100
AcDbEntity
  8
0
  6
Continuous
 62
     7
100
AcDbLine
 10
171.7472936923
 20
451.390497168
 30
0.0
 11
145.0806270256
 21
451.390497168
 31
0.0
  0
LINE
  5
191
330
1F
100
AcDbEntity
  8
0
  6
Continuous
 62
     7
100
AcDbLine
 10
145.0806270256
 20
451.390497168
 30
0.0
 11
145.0806270256
 21
434.7238305014
 31
0.0
  0
LINE
  5
192
330
1F
100
AcDbEntity
  8
0
  6
Continuous
 62
     7
100
AcDbLine
 10
145.0806270256
 20
434.7238305014
 30
0.0
 11
150.0806270256
 21
434.7238305014
 31
0.0
  0
LINE
  5
193
330
1F
100
AcDbEntity
  8
0
  6
Continuous
 62
     7
100
AcDbLine
 10
150.0806270256
 20
434.7238305014
 30
0.0
 11
150.0806270256
 21
418.0571638347
 31
0.0
  0
LINE
  5
194
330
1F
100
AcDbEntity
  8
0
  6
Continuous
 62
     7
100
AcDbLine
 10
150.0806270256
 20
418.0571638347
 30
0.0
 11
145.0806270256
 21
418.0571638347
 31
0.0
  0
LINE
  5
195
330
1F
100
AcDbEntity
  8
0
  6
Continuous
 62
     7
100
AcDbLine
 10
145.0806270256
 20
418.0571638347
 30
0.0
 11
145.0806270256
 21
401.390497168
 31
0.0
  0
LINE
  5
196
330
1F
100
AcDbEntity
  8
0
  6
Continuous
 62
     7
100
AcDbLine
 10
145.0806270256
 20
401.390497168
 30
0.0
 11
171.7472936923
 21
401.390497168
 31
0.0
  0
LINE
  5
197
330
1F
100
AcDbEntity
  8
0
  6
Continuous
 62
     7
100
AcDbLine
 10
171.7472936923
 20
401.390497168
 30
0.0
 11
171.7472936923
 21
396.390497168
 31
0.0
  0
LINE
  5
198
330
1F
100
AcDbEntity
  8
0
  6
Continuous
 62
     7
100
AcDbLine
 10
171.7472936923
 20
396.390497168
 30
0.0
 11
198.4139603589
 21
396.390497168
 31
0.0
  0
LINE
  5
199
330
1F
100
AcDbEntity
  8
0
  6
Continuous
 62
     7
100
AcDbLine
 10
198.4139603589
 20
396.390497168
 30
0.0
 11
198.4139603589
 21
401.390497168
 31
0.0
  0
LINE
  5
19A
330
1F
100
AcDbEntity
  8
0
  6
Continuous
 62
     7
100
AcDbLine
 10
198.4139603589
 20
401.390497168
 30
0.0
 11
225.0806270256
 21
401.390497168
 31
0.0
  0
LINE
  5
19B
330
1F
100
AcDbEntity
  8
0
  6
Continuous
 62
     7
100
AcDbLine
 10
225.0806270256
 20
401.390497168
 30
0.0
 11
225.0806270256
 21
418.0571638347
 31
0.0
  0
LINE
  5
19C
330
1F
100
AcDbEntity
  8
0
  6
Continuous
 62
     7
100
AcDbLine
 10
225.0806270256
 20
418.0571638347
 30
0.0
 11
220.0806270256
 21
418.0571638347
 31
0.0
  0
LINE
  5
19D
330
1F
100
AcDbEntity
  8
0
  6
Continuous
 62
     7
100
AcDbLine
 10
220.0806270256
 20
418.0571638347
 30
0.0
 11
220.0806270256
 21
434.7238305014
 31
0.0
  0
LINE
  5
19E
330
1F
100
AcDbEntity
  8
0
  6
Continuous
 62
     7
100
AcDbLine
 10
220.0806270256
 20
434.7238305014
 30
0.0
 11
225.0806270256
 21
434.7238305014
 31
0.0
  0
LINE
  5
19F
330
1F
100
AcDbEntity
  8
0
  6
Continuous
 62
     7
100
AcDbLine
 10
225.0806270256
 20
434.7238305014
 30
0.0
 11
225.0806270256
 21
451.390497168
 31
0.0
  0
LINE
  5
1A0
330
1F
100
AcDbEntity
  8
0
  6
Continuous
 62
     7
100
AcDbLine
 10
225.0806270256
 20
451.390497168
 30
0.0
 11
198.4139603589
 21
451.390497168
 31
0.0
  0
LINE
  5
1A1
330
1F
100
AcDbEntity
  8
0
  6
Continuous
 62
     7
100
AcDbLine
 10
290.0217119967
 20
450.5076994888
 30
0.0
 11
290.0217119967
 21
445.5076994888
 31
0.0
  0
LINE
  5
1A2
330
1F
100
AcDbEntity
  8
0
  6
Continuous
 62
     7
100
AcDbLine
 10
290.0217119967
 20
445.5076994888
 30
0.0
 11
263.3550453301
 21
445.5076994888
 31
0.0
  0
LINE
  5
1A3
330
1F
100
AcDbEntity
  8
0
  6
Continuous
 62
     7
100
AcDbLine
 10
263.3550453301
 20
445.5076994888
 30
0.0
 11
263.3550453301
 21
450.5076994888
 31
0.0
  0
LINE
  5
1A4
330
1F
100
AcDbEntity
  8
0
  6
Continuous
 62
     7
100
AcDbLine
 10
263.3550453301
 20
450.5076994888
 30
0.0
 11
236.6883786634
 21
450.5076994888
 31
0.0
  0
LINE
  5
1A5
330
1F
100
AcDbEntity
  8
0
  6
Continuous
 62
     7
100
AcDbLine
 10
236.6883786634
 20
450.5076994888
 30
0.0
 11
236.6883786634
 21
433.8410328222
 31
0.0
  0
LINE
  5
1A6
330
1F
100
AcDbEntity
  8
0
  6
Continuous
 62
     7
100
AcDbLine
 10
236.6883786634
 20
433.8410328222
 30
0.0
 11
241.6883786634
 21
433.8410328222
 31
0.0
  0
LINE
  5
1A7
330
1F
100
AcDbEntity
  8
0
  6
Continuous
 62
     7
100
AcDbLine
 10
241.6883786634
 20
433.8410328222
 30
0.0
 11
241.6883786634
 21
417.1743661555
 31
0.0
  0
LINE
  5
1A8
330
1F
100
AcDbEntity
  8
0
  6
Continuous
 62
     7
100
AcDbLine
 10
241.6883786634
 20
417.1743661555
 30
0.0
 11
236.6883786634
 21
417.1743661555
 31
0.0
  0
LINE
  5
1A9
330
1F
100
AcDbEntity
  8
0
  6
Continuous
 62
     7
100
AcDbLine
 10
236.6883786634
 20
417.1743661555
 30
0.0
 11
236.6883786634
 21
400.5076994888
 31
0.0
  0
LINE
  5
1AA
330
1F
100
AcDbEntity
  8
0
  6
Continuous
 62
     7
100
AcDbLine
 10
236.6883786634
 20
400.5076994888
 30
0.0
 11
263.3550453301
 21
400.5076994888
 31
0.0
  0
LINE
  5
1AB
330
1F
100
AcDbEntity
  8
0
  6
Continuous
 62
     7
100
AcDbLine
 10
263.3550453301
 20
400.5076994888
 30
0.0
 11
263.3550453301
 21
395.5076994888
 31
0.0
  0
LINE
  5
1AC
330
1F
100
AcDbEntity
  8
0
  6
Continuous
 62
     7
100
AcDbLine
 10
263.3550453301
 20
395.5076994888
 30
0.0
 11
290.0217119967
 21
395.5076994888
 31
0.0
  0
LINE
  5
1AD
330
1F
100
AcDbEntity
  8
0
  6
Continuous
 62
     7
100
AcDbLine
 10
290.0217119967
 20
395.5076994888
 30
0.0
 11
290.0217119967
 21
400.5076994888
 31
0.0
  0
LINE
  5
1AE
330
1F
100
AcDbEntity
  8
0
  6
Continuous
 62
     7
100
AcDbLine
 10
290.0217119967
 20
400.5076994888
 30
0.0
 11
316.6883786634
 21
400.5076994888
 31
0.0
  0
LINE
  5
1AF
330
1F
100
AcDbEntity
  8
0
  6
Continuous
 62
     7
100
AcDbLine
 10
316.6883786634
 20
400.5076994888
 30
0.0
 11
316.6883786634
 21
417.1743661555
 31
0.0
  0
LINE
  5
1B0
330
1F
100
AcDbEntity
  8
0
  6
Continuous
 62
     7
100
AcDbLine
 10
316.6883786634
 20
417.1743661555
 30
0.0
 11
311.6883786634
 21
417.1743661555
 31
0.0
  0
LINE
  5
1B1
330
1F
100
AcDbEntity
  8
0
  6
Continuous
 62
     7
100
AcDbLine
 10
311.6883786634
 20
417.1743661555
 30
0.0
 11
311.6883786634
 21
433.8410328222
 31
0.0
  0
LINE
  5
1B2
330
1F
100
AcDbEntity
  8
0
  6
Continuous
 62
     7
100
AcDbLine
 10
311.6883786634
 20
433.8410328222
 30
0.0
 11
316.6883786634
 21
433.8410328222
 31
0.0
  0
LINE
  5
1B3
330
1F
100
AcDbEntity
  8
0
  6
Continuous
 62
     7
100
AcDbLine
 10
316.6883786634
 20
433.8410328222
 30
0.0
 11
316.6883786634
 21
450.5076994888
 31
0.0
  0
LINE
  5
1B4
330
1F
100
AcDbEntity
  8
0
  6
Continuous
 62
     7
100
AcDbLine
 10
316.6883786634
 20
450.5076994888
 30
0.0
 11
290.0217119967
 21
450.5076994888
 31
0.0
  0
LINE
  5
1B5
330
1F
100
AcDbEntity
  8
0
  6
Continuous
 62
     7
100
AcDbLine
 10
14.9428386932
 20
101.4668235629
 30
0.0
 11
14.9428386932
 21
57.3001568963
 31
0.0
  0
LINE
  5
1B6
330
1F
100
AcDbEntity
  8
0
  6
Continuous
 62
     7
100
AcDbLine
 10
14.9428386932
 20
57.3001568963
 30
0.0
 11
18.6428386932
 21
57.3001568963
 31
0.0
  0
LINE
  5
1B7
330
1F
100
AcDbEntity
  8
0
  6
Continuous
 62
     7
100
AcDbLine
 10
18.6428386932
 20
57.3001568963
 30
0.0
 11
18.6428386932
 21
58.8001568963
 31
0.0
  0
LINE
  5
1B8
330
1F
100
AcDbEntity
  8
0
  6
Continuous
 62
     7
100
AcDbLine
 10
18.6428386932
 20
58.8001568963
 30
0.0
 11
21.4428386932
 21
58.8001568963
 31
0.0
  0
LINE
  5
1B9
330
1F
100
AcDbEntity
  8
0
  6
Continuous
 62
     7
100
AcDbLine
 10
21.4428386932
 20
58.8001568963
 30
0.0
 11
21.4428386932
 21
57.3001568963
 31
0.0
  0
LINE
  5
1BA
330
1F
100
AcDbEntity
  8
0
  6
Continuous
 62
     7
100
AcDbLine
 10
21.4428386932
 20
57.3001568963
 30
0.0
 11
23.9428386932
 21
57.3001568963
 31
0.0
  0
LINE
  5
1BB
330
1F
100
AcDbEntity
  8
0
  6
Continuous
 62
     7
100
AcDbLine
 10
23.9428386932
 20
57.3001568963
 30
0.0
 11
23.9428386932
 21
52.3001568963
 31
0.0
  0
LINE
  5
1BC
330
1F
100
AcDbEntity
  8
0
  6
Continuous
 62
     7
100
AcDbLine
 10
23.9428386932
 20
52.3001568963
 30
0.0
 11
21.4428386932
 21
52.3001568963
 31
0.0
  0
LINE
  5
1BD
330
1F
100
AcDbEntity
  8
0
  6
Continuous
 62
     7
100
AcDbLine
 10
21.4428386932
 20
52.3001568963
 30
0.0
 11
21.4428386932
 21
50.8001568963
 31
0.0
  0
LINE
  5
1BE
330
1F
100
AcDbEntity
  8
0
  6
Continuous
 62
     7
100
AcDbLine
 10
21.4428386932
 20
50.8001568963
 30
0.0
 11
18.6428386932
 21
50.8001568963
 31
0.0
  0
LINE
  5
1BF
330
1F
100
AcDbEntity
  8
0
  6
Continuous
 62
     7
100
AcDbLine
 10
18.6428386932
 20
50.8001568963
 30
0.0
 11
18.6428386932
 21
52.3001568963
 31
0.0
  0
LINE
  5
1C0
330
1F
100
AcDbEntity
  8
0
  6
Continuous
 62
     7
100
AcDbLine
 10
18.6428386932
 20
52.3001568963
 30
0.0
 11
14.9428386932
 21
52.3001568963
 31
0.0
  0
LINE
  5
1C1
330
1F
100
AcDbEntity
  8
0
  6
Continuous
 62
     7
100
AcDbLine
 10
14.9428386932
 20
52.3001568963
 30
0.0
 11
14.9428386932
 21
8.1334902296
 31
0.0
  0
LINE
  5
1C2
330
1F
100
AcDbEntity
  8
0
  6
Continuous
 62
     7
100
AcDbLine
 10
14.9428386932
 20
8.1334902296
 30
0.0
 11
180.9428386932
 21
8.1334902296
 31
0.0
  0
LINE
  5
1C3
330
1F
100
AcDbEntity
  8
0
  6
Continuous
 62
     7
100
AcDbLine
 10
180.9428386932
 20
8.1334902296
 30
0.0
 11
180.9428386932
 21
288.1334902296
 31
0.0
  0
LINE
  5
1C4
330
1F
100
AcDbEntity
  8
0
  6
Continuous
 62
     7
100
AcDbLine
 10
180.9428386932
 20
288.1334902296
 30
0.0
 11
14.9428386932
 21
288.1334902296
 31
0.0
  0
LINE
  5
1C5
330
1F
100
AcDbEntity
  8
0
  6
Continuous
 62
     7
100
AcDbLine
 10
14.9428386932
 20
288.1334902296
 30
0.0
 11
14.9428386932
 21
243.9668235629
 31
0.0
  0
LINE
  5
1C6
330
1F
100
AcDbEntity
  8
0
  6
Continuous
 62
     7
100
AcDbLine
 10
14.9428386932
 20
243.9668235629
 30
0.0
 11
18.6428386932
 21
243.9668235629
 31
0.0
  0
LINE
  5
1C7
330
1F
100
AcDbEntity
  8
0
  6
Continuous
 62
     7
100
AcDbLine
 10
18.6428386932
 20
243.9668235629
 30
0.0
 11
18.6428386932
 21
245.4668235629
 31
0.0
  0
LINE
  5
1C8
330
1F
100
AcDbEntity
  8
0
  6
Continuous
 62
     7
100
AcDbLine
 10
18.6428386932
 20
245.4668235629
 30
0.0
 11
21.4428386932
 21
245.4668235629
 31
0.0
  0
LINE
  5
1C9
330
1F
100
AcDbEntity
  8
0
  6
Continuous
 62
     7
100
AcDbLine
 10
21.4428386932
 20
245.4668235629
 30
0.0
 11
21.4428386932
 21
243.9668235629
 31
0.0
  0
LINE
  5
1CA
330
1F
100
AcDbEntity
  8
0
  6
Continuous
 62
     7
100
AcDbLine
 10
21.4428386932
 20
243.9668235629
 30
0.0
 11
23.9428386932
 21
243.9668235629
 31
0.0
  0
LINE
  5
1CB
330
1F
100
AcDbEntity
  8
0
  6
Continuous
 62
     7
100
AcDbLine
 10
23.9428386932
 20
243.9668235629
 30
0.0
 11
23.9428386932
 21
238.9668235629
 31
0.0
  0
LINE
  5
1CC
330
1F
100
AcDbEntity
  8
0
  6
Continuous
 62
     7
100
AcDbLine
 10
23.9428386932
 20
238.9668235629
 30
0.0
 11
21.4428386932
 21
238.9668235629
 31
0.0
  0
LINE
  5
1CD
330
1F
100
AcDbEntity
  8
0
  6
Continuous
 62
     7
100
AcDbLine
 10
21.4428386932
 20
238.9668235629
 30
0.0
 11
21.4428386932
 21
237.4668235629
 31
0.0
  0
LINE
  5
1CE
330
1F
100
AcDbEntity
  8
0
  6
Continuous
 62
     7
100
AcDbLine
 10
21.4428386932
 20
237.4668235629
 30
0.0
 11
18.6428386932
 21
237.4668235629
 31
0.0
  0
LINE
  5
1CF
330
1F
100
AcDbEntity
  8
0
  6
Continuous
 62
     7
100
AcDbLine
 10
18.6428386932
 20
237.4668235629
 30
0.0
 11
18.6428386932
 21
238.9668235629
 31
0.0
  0
LINE
  5
1D0
330
1F
100
AcDbEntity
  8
0
  6
Continuous
 62
     7
100
AcDbLine
 10
18.6428386932
 20
238.9668235629
 30
0.0
 11
14.9428386932
 21
238.9668235629
 31
0.0
  0
LINE
  5
1D1
330
1F
100
AcDbEntity
  8
0
  6
Continuous
 62
     7
100
AcDbLine
 10
14.9428386932
 20
238.9668235629
 30
0.0
 11
14.9428386932
 21
194.8001568963
 31
0.0
  0
LINE
  5
1D2
330
1F
100
AcDbEntity
  8
0
  6
Continuous
 62
     7
100
AcDbLine
 10
14.9428386932
 20
194.8001568963
 30
0.0
 11
9.9428386932
 21
194.8001568963
 31
0.0
  0
LINE
  5
1D3
330
1F
100
AcDbEntity
  8
0
  6
Continuous
 62
     7
100
AcDbLine
 10
9.9428386932
 20
194.8001568963
 30
0.0
 11
9.9428386932
 21
101.4668235629
 31
0.0
  0
LINE
  5
1D4
330
1F
100
AcDbEntity
  8
0
  6
Continuous
 62
     7
100
AcDbLine
 10
9.9428386932
 20
101.4668235629
 30
0.0
 11
14.9428386932
 21
101.4668235629
 31
0.0
  0
LINE
  5
1D5
330
1F
100
AcDbEntity
  8
0
  6
Continuous
 62
     7
100
AcDbLine
 10
110.9428386932
 20
18.1334902296
 30
0.0
 11
130.9428386932
 21
18.1334902296
 31
0.0
  0
LINE
  5
1D6
330
1F
100
AcDbEntity
  8
0
  6
Continuous
 62
     7
100
AcDbLine
 10
130.9428386932
 20
18.1334902296
 30
0.0
 11
130.9428386932
 21
23.1334902296
 31
0.0
  0
LINE
  5
1D7
330
1F
100
AcDbEntity
  8
0
  6
Continuous
 62
     7
100
AcDbLine
 10
110.9428386932
 20
23.1334902296
 30
0.0
 11
130.9428386932
 21
23.1334902296
 31
0.0
  0
LINE
  5
1D8
330
1F
100
AcDbEntity
  8
0
  6
Continuous
 62
     7
100
AcDbLine
 10
110.9428386932
 20
18.1334902296
 30
0.0
 11
110.9428386932
 21
23.1334902296
 31
0.0
  0
LINE
  5
1D9
330
1F
100
AcDbEntity
  8
0
  6
Continuous
 62
     7
100
AcDbLine
 10
151.2761720265
 20
33.1334902296
 30
0.0
 11
151.2761720265
 21
38.1334902296
 31
0.0
  0
LINE
  5
1DA
330
1F
100
AcDbEntity
  8
0
  6
Continuous
 62
     7
100
AcDbLine
 10
124.6095053599
 20
33.1334902296
 30
0.0
 11
151.2761720265
 21
33.1334902296
 31
0.0
  0
LINE
  5
1DB
330
1F
100
AcDbEntity
  8
0
  6
Continuous
 62
     7
100
AcDbLine
 10
124.6095053599
 20
33.1334902296
 30
0.0
 11
124.6095053599
 21
38.1334902296
 31
0.0
  0
LINE
  5
1DC
330
1F
100
AcDbEntity
  8
0
  6
Continuous
 62
     7
100
AcDbLine
 10
124.6095053599
 20
38.1334902296
 30
0.0
 11
151.2761720265
 21
38.1334902296
 31
0.0
  0
LINE
  5
1DD
330
1F
100
AcDbEntity
  8
0
  6
Continuous
 62
     7
100
AcDbLine
 10
172.9428386932
 20
109.8001568963
 30
0.0
 11
177.9428386932
 21
109.8001568963
 31
0.0
  0
LINE
  5
1DE
330
1F
100
AcDbEntity
  8
0
  6
Continuous
 62
     7
100
AcDbLine
 10
177.9428386932
 20
109.8001568963
 30
0.0
 11
177.9428386932
 21
186.4668235629
 31
0.0
  0
LINE
  5
1DF
330
1F
100
AcDbEntity
  8
0
  6
Continuous
 62
     7
100
AcDbLine
 10
172.9428386932
 20
186.4668235629
 30
0.0
 11
177.9428386932
 21
186.4668235629
 31
0.0
  0
LINE
  5
1E0
330
1F
100
AcDbEntity
  8
0
  6
Continuous
 62
     7
100
AcDbLine
 10
172.9428386932
 20
109.8001568963
 30
0.0
 11
172.9428386932
 21
186.4668235629
 31
0.0
  0
LINE
  5
1E1
330
1F
100
AcDbEntity
  8
0
  6
Continuous
 62
     7
100
AcDbLine
 10
97.9428386932
 20
186.4668235629
 30
0.0
 11
102.9428386932
 21
186.4668235629
 31
0.0
  0
LINE
  5
1E2
330
1F
100
AcDbEntity
  8
0
  6
Continuous
 62
     7
100
AcDbLine
 10
102.9428386932
 20
186.4668235629
 30
0.0
 11
102.9428386932
 21
109.8001568963
 31
0.0
  0
LINE
  5
1E3
330
1F
100
AcDbEntity
  8
0
  6
Continuous
 62
     7
100
AcDbLine
 10
102.9428386932
 20
109.8001568963
 30
0.0
 11
97.9428386932
 21
109.8001568963
 31
0.0
  0
LINE
  5
1E4
330
1F
100
AcDbEntity
  8
0
  6
Continuous
 62
     7
100
AcDbLine
 10
97.9428386932
 20
186.4668235629
 30
0.0
 11
97.9428386932
 21
109.8001568963
 31
0.0
  0
LINE
  5
1E5
330
1F
100
AcDbEntity
  8
0
  6
Continuous
 62
     7
100
AcDbLine
 10
85.9428386932
 20
101.4668235629
 30
0.0
 11
90.9428386932
 21
101.4668235629
 31
0.0
  0
LINE
  5
1E6
330
1F
100
AcDbEntity
  8
0
  6
Continuous
 62
     7
100
AcDbLine
 10
85.9428386932
 20
194.8001568963
 30
0.0
 11
90.9428386932
 21
194.8001568963
 31
0.0
  0
LINE
  5
1E7
330
1F
100
AcDbEntity
  8
0
  6
Continuous
 62
     7
100
AcDbLine
 10
90.9428386932
 20
194.8001568963
 30
0.0
 11
90.9428386932
 21
101.4668235629
 31
0.0
  0
LINE
  5
1E8
330
1F
100
AcDbEntity
  8
0
  6
Continuous
 62
     7
100
AcDbLine
 10
85.9428386932
 20
194.8001568963
 30
0.0
 11
85.9428386932
 21
101.4668235629
 31
0.0
  0
LINE
  5
1E9
330
1F
100
AcDbEntity
  8
0
  6
Continuous
 62
     7
100
AcDbLine
 10
65.9428386932
 20
93.1334902296
 30
0.0
 11
65.9428386932
 21
88.1334902296
 31
0.0
  0
LINE
  5
1EA
330
1F
100
AcDbEntity
  8
0
  6
Continuous
 62
     7
100
AcDbLine
 10
45.9428386932
 20
88.1334902296
 30
0.0
 11
45.9428386932
 21
93.1334902296
 31
0.0
  0
LINE
  5
1EB
330
1F
100
AcDbEntity
  8
0
  6
Continuous
 62
     7
100
AcDbLine
 10
65.9428386932
 20
88.1334902296
 30
0.0
 11
45.9428386932
 21
88.1334902296
 31
0.0
  0
LINE
  5
1EC
330
1F
100
AcDbEntity
  8
0
  6
Continuous
 62
     7
100
AcDbLine
 10
65.9428386932
 20
93.1334902296
 30
0.0
 11
45.9428386932
 21
93.1334902296
 31
0.0
  0
LINE
  5
1ED
330
1F
100
AcDbEntity
  8
0
  6
Continuous
 62
     7
100
AcDbLine
 10
110.9428386932
 20
278.1334902296
 30
0.0
 11
110.9428386932
 21
273.1334902296
 31
0.0
  0
LINE
  5
1EE
330
1F
100
AcDbEntity
  8
0
  6
Continuous
 62
     7
100
AcDbLine
 10
110.9428386932
 20
278.1334902296
 30
0.0
 11
130.9428386932
 21
278.1334902296
 31
0.0
  0
LINE
  5
1EF
330
1F
100
AcDbEntity
  8
0
  6
Continuous
 62
     7
100
AcDbLine
 10
130.9428386932
 20
278.1334902296
 30
0.0
 11
130.9428386932
 21
273.1334902296
 31
0.0
  0
LINE
  5
1F0
330
1F
100
AcDbEntity
  8
0
  6
Continuous
 62
     7
100
AcDbLine
 10
110.9428386932
 20
273.1334902296
 30
0.0
 11
130.9428386932
 21
273.1334902296
 31
0.0
  0
LINE
  5
1F1
330
1F
100
AcDbEntity
  8
0
  6
Continuous
 62
     7
100
AcDbLine
 10
151.2761720265
 20
263.1334902296
 30
0.0
 11
151.2761720265
 21
258.1334902296
 31
0.0
  0
LINE
  5
1F2
330
1F
100
AcDbEntity
  8
0
  6
Continuous
 62
     7
100
AcDbLine
 10
151.2761720265
 20
258.1334902296
 30
0.0
 11
124.6095053599
 21
258.1334902296
 31
0.0
  0
LINE
  5
1F3
330
1F
100
AcDbEntity
  8
0
  6
Continuous
 62
     7
100
AcDbLine
 10
151.2761720265
 20
263.1334902296
 30
0.0
 11
124.6095053599
 21
263.1334902296
 31
0.0
  0
LINE
  5
1F4
330
1F
100
AcDbEntity
  8
0
  6
Continuous
 62
     7
100
AcDbLine
 10
124.6095053599
 20
263.1334902296
 30
0.0
 11
124.6095053599
 21
258.1334902296
 31
0.0
  0
LINE
  5
1F5
330
1F
100
AcDbEntity
  8
0
  6
Continuous
 62
     7
100
AcDbLine
 10
65.9428386932
 20
203.1334902296
 30
0.0
 11
65.9428386932
 21
208.1334902296
 31
0.0
  0
LINE
  5
1F6
330
1F
100
AcDbEntity
  8
0
  6
Continuous
 62
     7
100
AcDbLine
 10
65.9428386932
 20
203.1334902296
 30
0.0
 11
45.9428386932
 21
203.1334902296
 31
0.0
  0
LINE
  5
1F7
330
1F
100
AcDbEntity
  8
0
  6
Continuous
 62
     7
100
AcDbLine
 10
45.9428386932
 20
208.1334902296
 30
0.0
 11
45.9428386932
 21
203.1334902296
 31
0.0
  0
LINE
  5
1F8
330
1F
100
AcDbEntity
  8
0
  6
Continuous
 62
     7
100
AcDbLine
 10
65.9428386932
 20
208.1334902296
 30
0.0
 11
45.9428386932
 21
208.1334902296
 31
0.0
  0
LINE
  5
1F9
330
1F
100
AcDbEntity
  8
0
  6
Continuous
 62
     7
100
AcDbLine
 10
188.5809538179
 20
371.5027254434
 30
0.0
 11
188.5809538179
 21
388.5027254434
 31
0.0
  0
LINE
  5
1FA
330
1F
100
AcDbEntity
  8
0
  6
Continuous
 62
     7
100
AcDbLine
 10
188.5809538179
 20
388.5027254434
 30
0.0
 11
183.5809538179
 21
388.5027254434
 31
0.0
  0
LINE
  5
1FB
330
1F
100
AcDbEntity
  8
0
  6
Continuous
 62
     7
100
AcDbLine
 10
183.5809538179
 20
388.5027254434
 30
0.0
 11
143.5809538179
 21
354.5027254434
 31
0.0
  0
LINE
  5
1FC
330
1F
100
AcDbEntity
  8
0
  6
Continuous
 62
     7
100
AcDbLine
 10
143.5809538179
 20
354.5027254434
 30
0.0
 11
143.5809538179
 21
349.5027254434
 31
0.0
  0
LINE
  5
1FD
330
1F
100
AcDbEntity
  8
0
  6
Continuous
 62
     7
100
AcDbLine
 10
143.5809538179
 20
349.5027254434
 30
0.0
 11
163.5809538179
 21
349.5027254434
 31
0.0
  0
LINE
  5
1FE
330
1F
100
AcDbEntity
  8
0
  6
Continuous
 62
     7
100
AcDbLine
 10
163.5809538179
 20
349.5027254434
 30
0.0
 11
163.5809538179
 21
354.5027254434
 31
0.0
  0
LINE
  5
1FF
330
1F
100
AcDbEntity
  8
0
  6
Continuous
 62
     7
100
AcDbLine
 10
163.5809538179
 20
354.5027254434
 30
0.0
 11
183.5809538179
 21
354.5027254434
 31
0.0
  0
LINE
  5
200
330
1F
100
AcDbEntity
  8
0
  6
Continuous
 62
     7
100
AcDbLine
 10
183.5809538179
 20
354.5027254434
 30
0.0
 11
183.5809538179
 21
371.5027254434
 31
0.0
  0
LINE
  5
201
330
1F
100
AcDbEntity
  8
0
  6
Continuous
 62
     7
100
AcDbLine
 10
183.5809538179
 20
371.5027254434
 30
0.0
 11
188.5809538179
 21
371.5027254434
 31
0.0
  0
LINE
  5
202
330
1F
100
AcDbEntity
  8
0
  6
Continuous
 62
     7
100
AcDbLine
 10
234.2081603027
 20
370.9258617758
 30
0.0
 11
234.2081603027
 21
387.9258617758
 31
0.0
  0
LINE
  5
203
330
1F
100
AcDbEntity
  8
0
  6
Continuous
 62
     7
100
AcDbLine
 10
234.2081603027
 20
387.9258617758
 30
0.0
 11
229.2081603027
 21
387.9258617758
 31
0.0
  0
LINE
  5
204
330
1F
100
AcDbEntity
  8
0
  6
Continuous
 62
     7
100
AcDbLine
 10
229.2081603027
 20
387.9258617758
 30
0.0
 11
189.2081603027
 21
353.9258617758
 31
0.0
  0
LINE
  5
205
330
1F
100
AcDbEntity
  8
0
  6
Continuous
 62
     7
100
AcDbLine
 10
189.2081603027
 20
353.9258617758
 30
0.0
 11
189.2081603027
 21
348.9258617758
 31
0.0
  0
LINE
  5
206
330
1F
100
AcDbEntity
  8
0
  6
Continuous
 62
     7
100
AcDbLine
 10
189.2081603027
 20
348.9258617758
 30
0.0
 11
209.2081603027
 21
348.9258617758
 31
0.0
  0
LINE
  5
207
330
1F
100
AcDbEntity
  8
0
  6
Continuous
 62
     7
100
AcDbLine
 10
209.2081603027
 20
348.9258617758
 30
0.0
 11
209.2081603027
 21
353.9258617758
 31
0.0
  0
LINE
  5
208
330
1F
100
AcDbEntity
  8
0
  6
Continuous
 62
     7
100
AcDbLine
 10
209.2081603027
 20
353.9258617758
 30
0.0
 11
229.2081603027
 21
353.9258617758
 31
0.0
  0
LINE
  5
209
330
1F
100
AcDbEntity
  8
0
  6
Continuous
 62
     7
100
AcDbLine
 10
229.2081603027
 20
353.9258617758
 30
0.0
 11
229.2081603027
 21
370.9258617758
 31
0.0
  0
LINE
  5
20A
330
1F
100
AcDbEntity
  8
0
  6
Continuous
 62
     7
100
AcDbLine
 10
229.2081603027
 20
370.9258617758
 30
0.0
 11
234.2081603027
 21
370.9258617758
 31
0.0
  0
LINE
  5
20B
330
1F
100
AcDbEntity
  8
0
  6
Continuous
 62
     7
100
AcDbLine
 10
162.9654973503
 20
321.8924500271
 30
0.0
 11
162.9654973503
 21
338.8924500271
 31
0.0
  0
LINE
  5
20C
330
1F
100
AcDbEntity
  8
0
  6
Continuous
 62
     7
100
AcDbLine
 10
162.9654973503
 20
338.8924500271
 30
0.0
 11
157.9654973503
 21
338.8924500271
 31
0.0
  0
LINE
  5
20D
330
1F
100
AcDbEntity
  8
0
  6
Continuous
 62
     7
100
AcDbLine
 10
157.9654973503
 20
338.8924500271
 30
0.0
 11
117.9654973503
 21
304.8924500271
 31
0.0
  0
LINE
  5
20E
330
1F
100
AcDbEntity
  8
0
  6
Continuous
 62
     7
100
AcDbLine
 10
117.9654973503
 20
304.8924500271
 30
0.0
 11
117.9654973503
 21
299.8924500271
 31
0.0
  0
LINE
  5
20F
330
1F
100
AcDbEntity
  8
0
  6
Continuous
 62
     7
100
AcDbLine
 10
117.9654973503
 20
299.8924500271
 30
0.0
 11
137.9654973503
 21
299.8924500271
 31
0.0
  0
LINE
  5
210
330
1F
100
AcDbEntity
  8
0
  6
Continuous
 62
     7
100
AcDbLine
 10
137.9654973503
 20
299.8924500271
 30
0.0
 11
137.9654973503
 21
304.8924500271
 31
0.0
  0
LINE
  5
211
330
1F
100
AcDbEntity
  8
0
  6
Continuous
 62
     7
100
AcDbLine
 10
137.9654973503
 20
304.8924500271
 30
0.0
 11
157.9654973503
 21
304.8924500271
 31
0.0
  0
LINE
  5
212
330
1F
100
AcDbEntity
  8
0
  6
Continuous
 62
     7
100
AcDbLine
 10
157.9654973503
 20
304.8924500271
 30
0.0
 11
157.9654973503
 21
321.8924500271
 31
0.0
  0
LINE
  5
213
330
1F
100
AcDbEntity
  8
0
  6
Continuous
 62
     7
100
AcDbLine
 10
157.9654973503
 20
321.8924500271
 30
0.0
 11
162.9654973503
 21
321.8924500271
 31
0.0
  0
LINE
  5
214
330
1F
100
AcDbEntity
  8
0
  6
Continuous
 62
     7
100
AcDbLine
 10
206.5187042564
 20
320.450290858
 30
0.0
 11
206.5187042564
 21
337.450290858
 31
0.0
  0
LINE
  5
215
330
1F
100
AcDbEntity
  8
0
  6
Continuous
 62
     7
100
AcDbLine
 10
206.5187042564
 20
337.450290858
 30
0.0
 11
201.5187042564
 21
337.450290858
 31
0.0
  0
LINE
  5
216
330
1F
100
AcDbEntity
  8
0
  6
Continuous
 62
     7
100
AcDbLine
 10
201.5187042564
 20
337.450290858
 30
0.0
 11
161.5187042564
 21
303.450290858
 31
0.0
  0
LINE
  5
217
330
1F
100
AcDbEntity
  8
0
  6
Continuous
 62
     7
100
AcDbLine
 10
161.5187042564
 20
303.450290858
 30
0.0
 11
161.5187042564
 21
298.450290858
 31
0.0
  0
LINE
  5
218
330
1F
100
AcDbEntity
  8
0
  6
Continuous
 62
     7
100
AcDbLine
 10
161.5187042564
 20
298.450290858
 30
0.0
 11
181.5187042564
 21
298.450290858
 31
0.0
  0
LINE
  5
219
330
1F
100
AcDbEntity
  8
0
  6
Continuous
 62
     7
100
AcDbLine
 10
181.5187042564
 20
298.450290858
 30
0.0
 11
181.5187042564
 21
303.450290858
 31
0.0
  0
LINE
  5
21A
330
1F
100
AcDbEntity
  8
0
  6
Continuous
 62
     7
100
AcDbLine
 10
181.5187042564
 20
303.450290858
 30
0.0
 11
201.5187042564
 21
303.450290858
 31
0.0
  0
LINE
  5
21B
330
1F
100
AcDbEntity
  8
0
  6
Continuous
 62
     7
100
AcDbLine
 10
201.5187042564
 20
303.450290858
 30
0.0
 11
201.5187042564
 21
320.450290858
 31
0.0
  0
LINE
  5
21C
330
1F
100
AcDbEntity
  8
0
  6
Continuous
 62
     7
100
AcDbLine
 10
201.5187042564
 20
320.450290858
 30
0.0
 11
206.5187042564
 21
320.450290858
 31
0.0
  0
LINE
  5
21D
330
1F
100
AcDbEntity
  8
0
  6
Continuous
 62
     7
100
AcDbLine
 10
232.6565941821
 20
227.6767629237
 30
0.0
 11
232.6565941821
 21
240.6767629237
 31
0.0
  0
LINE
  5
21E
330
1F
100
AcDbEntity
  8
0
  6
Continuous
 62
     7
100
AcDbLine
 10
213.6565941821
 20
227.6767629237
 30
0.0
 11
232.6565941821
 21
227.6767629237
 31
0.0
  0
LINE
  5
21F
330
1F
100
AcDbEntity
  8
0
  6
Continuous
 62
     7
100
AcDbLine
 10
232.6565941821
 20
240.6767629237
 30
0.0
 11
213.6565941821
 21
240.6767629237
 31
0.0
  0
LINE
  5
220
330
1F
100
AcDbEntity
  8
0
  6
Continuous
 62
     7
100
AcDbLine
 10
213.6565941821
 20
240.6767629237
 30
0.0
 11
213.6565941821
 21
227.6767629237
 31
0.0
  0
LINE
  5
221
330
1F
100
AcDbEntity
  8
0
  6
Continuous
 62
     7
100
AcDbLine
 10
223.1765941821
 20
252.6767629237
 30
0.0
 11
267.1765941821
 21
252.6767629237
 31
0.0
  0
LINE
  5
222
330
1F
100
AcDbEntity
  8
0
  6
Continuous
 62
     7
100
AcDbLine
 10
223.1765941821
 20
278.6767629237
 30
0.0
 11
223.1765941821
 21
252.6767629237
 31
0.0
  0
LINE
  5
223
330
1F
100
AcDbEntity
  8
0
  6
Continuous
 62
     7
100
AcDbLine
 10
223.1765941821
 20
278.6767629237
 30
0.0
 11
267.1765941821
 21
278.6767629237
 31
0.0
  0
LINE
  5
224
330
1F
100
AcDbEntity
  8
0
  6
Continuous
 62
     7
100
AcDbLine
 10
267.1765941821
 20
278.6767629237
 30
0.0
 11
267.1765941821
 21
252.6767629237
 31
0.0
  0
LINE
  5
225
330
1F
100
AcDbEntity
  8
0
  6
Continuous
 62
     7
100
AcDbLine
 10
193.6565941821
 20
218.6767629237
 30
0.0
 11
265.3232608487
 21
218.6767629237
 31
0.0
  0
LINE
  5
226
330
1F
100
AcDbEntity
  8
0
  6
Continuous
 62
     7
100
AcDbLine
 10
265.3232608487
 20
218.6767629237
 30
0.0
 11
265.3232608487
 21
213.6767629237
 31
0.0
  0
LINE
  5
227
330
1F
100
AcDbEntity
  8
0
  6
Continuous
 62
     7
100
AcDbLine
 10
265.3232608487
 20
213.6767629237
 30
0.0
 11
341.9899275154
 21
213.6767629237
 31
0.0
  0
LINE
  5
228
330
1F
100
AcDbEntity
  8
0
  6
Continuous
 62
     7
100
AcDbLine
 10
341.9899275154
 20
213.6767629237
 30
0.0
 11
341.9899275154
 21
218.6767629237
 31
0.0
  0
LINE
  5
229
330
1F
100
AcDbEntity
  8
0
  6
Continuous
 62
     7
100
AcDbLine
 10
341.9899275154
 20
218.6767629237
 30
0.0
 11
413.6565941821
 21
218.6767629237
 31
0.0
  0
LINE
  5
22A
330
1F
100
AcDbEntity
  8
0
  6
Continuous
 62
     7
100
AcDbLine
 10
413.6565941821
 20
218.6767629237
 30
0.0
 11
413.6565941821
 21
240.3434295903
 31
0.0
  0
LINE
  5
22B
330
1F
100
AcDbEntity
  8
0
  6
Continuous
 62
     7
100
AcDbLine
 10
413.6565941821
 20
240.3434295903
 30
0.0
 11
418.6565941821
 21
240.3434295903
 31
0.0
  0
LINE
  5
22C
330
1F
100
AcDbEntity
  8
0
  6
Continuous
 62
     7
100
AcDbLine
 10
418.6565941821
 20
240.3434295903
 30
0.0
 11
418.6565941821
 21
267.010096257
 31
0.0
  0
LINE
  5
22D
330
1F
100
AcDbEntity
  8
0
  6
Continuous
 62
     7
100
AcDbLine
 10
418.6565941821
 20
267.010096257
 30
0.0
 11
413.6565941821
 21
267.010096257
 31
0.0
  0
LINE
  5
22E
330
1F
100
AcDbEntity
  8
0
  6
Continuous
 62
     7
100
AcDbLine
 10
413.6565941821
 20
267.010096257
 30
0.0
 11
413.6565941821
 21
288.6767629237
 31
0.0
  0
LINE
  5
22F
330
1F
100
AcDbEntity
  8
0
  6
Continuous
 62
     7
100
AcDbLine
 10
413.6565941821
 20
288.6767629237
 30
0.0
 11
341.9899275154
 21
288.6767629237
 31
0.0
  0
LINE
  5
230
330
1F
100
AcDbEntity
  8
0
  6
Continuous
 62
     7
100
AcDbLine
 10
341.9899275154
 20
288.6767629237
 30
0.0
 11
341.9899275154
 21
293.6767629237
 31
0.0
  0
LINE
  5
231
330
1F
100
AcDbEntity
  8
0
  6
Continuous
 62
     7
100
AcDbLine
 10
341.9899275154
 20
293.6767629237
 30
0.0
 11
265.3232608487
 21
293.6767629237
 31
0.0
  0
LINE
  5
232
330
1F
100
AcDbEntity
  8
0
  6
Continuous
 62
     7
100
AcDbLine
 10
265.3232608487
 20
293.6767629237
 30
0.0
 11
265.3232608487
 21
288.6767629237
 31
0.0
  0
LINE
  5
233
330
1F
100
AcDbEntity
  8
0
  6
Continuous
 62
     7
100
AcDbLine
 10
265.3232608487
 20
288.6767629237
 30
0.0
 11
193.6565941821
 21
288.6767629237
 31
0.0
  0
LINE
  5
234
330
1F
100
AcDbEntity
  8
0
  6
Continuous
 62
     7
100
AcDbLine
 10
193.6565941821
 20
288.6767629237
 30
0.0
 11
193.6565941821
 21
267.010096257
 31
0.0
  0
LINE
  5
235
330
1F
100
AcDbEntity
  8
0
  6
Continuous
 62
     7
100
AcDbLine
 10
193.6565941821
 20
267.010096257
 30
0.0
 11
188.6565941821
 21
267.010096257
 31
0.0
  0
LINE
  5
236
330
1F
100
AcDbEntity
  8
0
  6
Continuous
 62
     7
100
AcDbLine
 10
188.6565941821
 20
267.010096257
 30
0.0
 11
188.6565941821
 21
240.3434295903
 31
0.0
  0
LINE
  5
237
330
1F
100
AcDbEntity
  8
0
  6
Continuous
 62
     7
100
AcDbLine
 10
188.6565941821
 20
240.3434295903
 30
0.0
 11
193.6565941821
 21
240.3434295903
 31
0.0
  0
LINE
  5
238
330
1F
100
AcDbEntity
  8
0
  6
Continuous
 62
     7
100
AcDbLine
 10
193.6565941821
 20
240.3434295903
 30
0.0
 11
193.6565941821
 21
218.6767629237
 31
0.0
  0
LINE
  5
239
330
1F
100
AcDbEntity
  8
0
  6
Continuous
 62
     7
100
AcDbLine
 10
284.9902096082
 20
301.6918833722
 30
0.0
 11
284.9902096082
 21
341.6918833722
 31
0.0
  0
LINE
  5
23A
330
1F
100
AcDbEntity
  8
0
  6
Continuous
 62
     7
100
AcDbLine
 10
284.9902096082
 20
341.6918833722
 30
0.0
 11
288.8831824553
 21
354.3348562193
 31
0.0
  0
LINE
  5
23B
330
1F
100
AcDbEntity
  8
0
  6
Continuous
 62
     7
100
AcDbLine
 10
241.0972367611
 20
354.3348562193
 30
0.0
 11
244.9902096082
 21
341.6918833722
 31
0.0
  0
LINE
  5
23C
330
1F
100
AcDbEntity
  8
0
  6
Continuous
 62
     7
100
AcDbLine
 10
244.9902096082
 20
341.6918833722
 30
0.0
 11
244.9902096082
 21
301.6918833722
 31
0.0
  0
LINE
  5
23D
330
1F
100
AcDbEntity
  8
0
  6
Continuous
 62
     7
100
AcDbLine
 10
244.9902096082
 20
301.6918833722
 30
0.0
 11
284.9902096082
 21
301.6918833722
 31
0.0
  0
LINE
  5
23E
330
1F
100
AcDbEntity
  8
0
  6
Continuous
 62
     7
100
AcDbLine
 10
338.3204659288
 20
300.6881460989
 30
0.0
 11
338.3204659288
 21
340.6881460989
 31
0.0
  0
LINE
  5
23F
330
1F
100
AcDbEntity
  8
0
  6
Continuous
 62
     7
100
AcDbLine
 10
338.3204659288
 20
340.6881460989
 30
0.0
 11
342.2134387759
 21
353.331118946
 31
0.0
  0
LINE
  5
240
330
1F
100
AcDbEntity
  8
0
  6
Continuous
 62
     7
100
AcDbLine
 10
294.4274930818
 20
353.331118946
 30
0.0
 11
298.3204659288
 21
340.6881460989
 31
0.0
  0
LINE
  5
241
330
1F
100
AcDbEntity
  8
0
  6
Continuous
 62
     7
100
AcDbLine
 10
298.3204659288
 20
340.6881460989
 30
0.0
 11
298.3204659288
 21
300.6881460989
 31
0.0
  0
LINE
  5
242
330
1F
100
AcDbEntity
  8
0
  6
Continuous
 62
     7
100
AcDbLine
 10
298.3204659288
 20
300.6881460989
 30
0.0
 11
338.3204659288
 21
300.6881460989
 31
0.0
  0
LINE
  5
243
330
1F
100
AcDbEntity
  8
0
  6
Continuous
 62
     7
100
AcDbLine
 10
383.5086983837
 20
388.622003849
 30
0.0
 11
383.5086983837
 21
428.622003849
 31
0.0
  0
LINE
  5
244
330
1F
100
AcDbEntity
  8
0
  6
Continuous
 62
     7
100
AcDbLine
 10
383.5086983837
 20
428.622003849
 30
0.0
 11
387.4016712308
 21
441.2649766961
 31
0.0
  0
LINE
  5
245
330
1F
100
AcDbEntity
  8
0
  6
Continuous
 62
     7
100
AcDbLine
 10
339.6157255367
 20
441.2649766961
 30
0.0
 11
343.5086983837
 21
428.622003849
 31
0.0
  0
LINE
  5
246
330
1F
100
AcDbEntity
  8
0
  6
Continuous
 62
     7
100
AcDbLine
 10
343.5086983837
 20
428.622003849
 30
0.0
 11
343.5086983837
 21
388.622003849
 31
0.0
  0
LINE
  5
247
330
1F
100
AcDbEntity
  8
0
  6
Continuous
 62
     7
100
AcDbLine
 10
343.5086983837
 20
388.622003849
 30
0.0
 11
383.5086983837
 21
388.622003849
 31
0.0
  0
LINE
  5
248
330
1F
100
AcDbEntity
  8
0
  6
Continuous
 62
     7
100
AcDbLine
 10
393.6862282159
 20
299.0597413258
 30
0.0
 11
393.6862282159
 21
339.0597413258
 31
0.0
  0
LINE
  5
249
330
1F
100
AcDbEntity
  8
0
  6
Continuous
 62
     7
100
AcDbLine
 10
393.6862282159
 20
339.0597413258
 30
0.0
 11
397.579201063
 21
351.7027141728
 31
0.0
  0
LINE
  5
24A
330
1F
100
AcDbEntity
  8
0
  6
Continuous
 62
     7
100
AcDbLine
 10
349.7932553689
 20
351.7027141728
 30
0.0
 11
353.6862282159
 21
339.0597413258
 31
0.0
  0
LINE
  5
24B
330
1F
100
AcDbEntity
  8
0
  6
Continuous
 62
     7
100
AcDbLine
 10
353.6862282159
 20
339.0597413258
 30
0.0
 11
353.6862282159
 21
299.0597413258
 31
0.0
  0
LINE
  5
24C
330
1F
100
AcDbEntity
  8
0
  6
Continuous
 62
     7
100
AcDbLine
 10
353.6862282159
 20
299.0597413258
 30
0.0
 11
393.6862282159
 21
299.0597413258
 31
0.0
  0
LINE
  5
24D
330
1F
100
AcDbEntity
  8
0
  6
Continuous
 62
     7
100
AcDbLine
 10
450.2641728993
 20
3.8288233468
 30
0.0
 11
496.707456487
 21
3.8288233468
 31
0.0
  0
LINE
  5
24E
330
1F
100
AcDbEntity
  8
0
  6
Continuous
 62
     7
100
AcDbLine
 10
526.707456487
 20
33.8288233468
 30
0.0
 11
526.707456487
 21
173.8288233468
 31
0.0
  0
LINE
  5
24F
330
1F
100
AcDbEntity
  8
0
  6
Continuous
 62
     7
100
AcDbLine
 10
496.707456487
 20
203.8288233468
 30
0.0
 11
216.707456487
 21
203.8288233468
 31
0.0
  0
LINE
  5
250
330
1F
100
AcDbEntity
  8
0
  6
Continuous
 62
     7
100
AcDbLine
 10
186.707456487
 20
173.8288233468
 30
0.0
 11
186.707456487
 21
33.8288233468
 31
0.0
  0
LINE
  5
251
330
1F
100
AcDbEntity
  8
0
  6
Continuous
 62
     7
100
AcDbLine
 10
216.707456487
 20
3.8288233468
 30
0.0
 11
263.1507400746
 21
3.8288233468
 31
0.0
  0
LINE
  5
252
330
1F
100
AcDbEntity
  8
0
  6
Continuous
 62
     7
100
AcDbLine
 10
263.5975062327
 20
3.8288233468
 30
0.0
 11
310.0407898203
 21
3.8288233468
 31
0.0
  0
LINE
  5
253
330
1F
100
AcDbEntity
  8
0
  6
Continuous
 62
     7
100
AcDbLine
 10
310.0407898203
 20
3.8288233468
 30
0.0
 11
310.0407898203
 21
8.8288233468
 31
0.0
  0
LINE
  5
254
330
1F
100
AcDbEntity
  8
0
  6
Continuous
 62
     7
100
AcDbLine
 10
310.0407898203
 20
8.8288233468
 30
0.0
 11
403.3741231536
 21
8.8288233468
 31
0.0
  0
LINE
  5
255
330
1F
100
AcDbEntity
  8
0
  6
Continuous
 62
     7
100
AcDbLine
 10
403.3741231536
 20
8.8288233468
 30
0.0
 11
403.3741231536
 21
3.8288233468
 31
0.0
  0
LINE
  5
256
330
1F
100
AcDbEntity
  8
0
  6
Continuous
 62
     7
100
AcDbLine
 10
403.3741231536
 20
3.8288233468
 30
0.0
 11
449.8174067413
 21
3.8288233468
 31
0.0
  0
LINE
  5
257
330
1F
100
AcDbEntity
  8
0
  6
Continuous
 62
     7
100
AcDbLine
 10
705.225281161
 20
417.2179680129
 30
0.0
 11
700.225281161
 21
417.2179680129
 31
0.0
  0
LINE
  5
258
330
1F
100
AcDbEntity
  8
0
  6
Continuous
 62
     7
100
AcDbLine
 10
705.225281161
 20
400.2179680129
 30
0.0
 11
705.225281161
 21
417.2179680129
 31
0.0
  0
LINE
  5
259
330
1F
100
AcDbEntity
  8
0
  6
Continuous
 62
     7
100
AcDbLine
 10
700.225281161
 20
400.2179680129
 30
0.0
 11
700.225281161
 21
417.2179680129
 31
0.0
  0
LINE
  5
25A
330
1F
100
AcDbEntity
  8
0
  6
Continuous
 62
     7
100
AcDbLine
 10
705.225281161
 20
400.2179680129
 30
0.0
 11
700.225281161
 21
400.2179680129
 31
0.0
  0
LINE
  5
25B
330
1F
100
AcDbEntity
  8
0
  6
Continuous
 62
     7
100
AcDbLine
 10
630.225281161
 20
400.2179680129
 30
0.0
 11
635.225281161
 21
400.2179680129
 31
0.0
  0
LINE
  5
25C
330
1F
100
AcDbEntity
  8
0
  6
Continuous
 62
     7
100
AcDbLine
 10
635.225281161
 20
417.2179680129
 30
0.0
 11
630.225281161
 21
417.2179680129
 31
0.0
  0
LINE
  5
25D
330
1F
100
AcDbEntity
  8
0
  6
Continuous
 62
     7
100
AcDbLine
 10
635.225281161
 20
400.2179680129
 30
0.0
 11
635.225281161
 21
417.2179680129
 31
0.0
  0
LINE
  5
25E
330
1F
100
AcDbEntity
  8
0
  6
Continuous
 62
     7
100
AcDbLine
 10
630.225281161
 20
400.2179680129
 30
0.0
 11
630.225281161
 21
417.2179680129
 31
0.0
  0
LINE
  5
25F
330
1F
100
AcDbEntity
  8
0
  6
Continuous
 62
     7
100
AcDbLine
 10
515.225281161
 20
417.2179680129
 30
0.0
 11
520.225281161
 21
417.2179680129
 31
0.0
  0
LINE
  5
260
330
1F
100
AcDbEntity
  8
0
  6
Continuous
 62
     7
100
AcDbLine
 10
520.225281161
 20
400.2179680129
 30
0.0
 11
520.225281161
 21
417.2179680129
 31
0.0
  0
LINE
  5
261
330
1F
100
AcDbEntity
  8
0
  6
Continuous
 62
     7
100
AcDbLine
 10
515.225281161
 20
400.2179680129
 30
0.0
 11
515.225281161
 21
417.2179680129
 31
0.0
  0
LINE
  5
262
330
1F
100
AcDbEntity
  8
0
  6
Continuous
 62
     7
100
AcDbLine
 10
515.225281161
 20
400.2179680129
 30
0.0
 11
520.225281161
 21
400.2179680129
 31
0.0
  0
LINE
  5
263
330
1F
100
AcDbEntity
  8
0
  6
Continuous
 62
     7
100
AcDbLine
 10
445.225281161
 20
400.2179680129
 30
0.0
 11
450.225281161
 21
400.2179680129
 31
0.0
  0
LINE
  5
264
330
1F
100
AcDbEntity
  8
0
  6
Continuous
 62
     7
100
AcDbLine
 10
445.225281161
 20
417.2179680129
 30
0.0
 11
450.225281161
 21
417.2179680129
 31
0.0
  0
LINE
  5
265
330
1F
100
AcDbEntity
  8
0
  6
Continuous
 62
     7
100
AcDbLine
 10
450.225281161
 20
400.2179680129
 30
0.0
 11
450.225281161
 21
417.2179680129
 31
0.0
  0
LINE
  5
266
330
1F
100
AcDbEntity
  8
0
  6
Continuous
 62
     7
100
AcDbLine
 10
445.225281161
 20
400.2179680129
 30
0.0
 11
445.225281161
 21
417.2179680129
 31
0.0
  0
LINE
  5
267
330
1F
100
AcDbEntity
  8
0
  6
Continuous
 62
     7
100
AcDbLine
 10
672.5586144944
 20
386.7179680129
 30
0.0
 11
671.0586144944
 21
386.7179680129
 31
0.0
  0
LINE
  5
268
330
1F
100
AcDbEntity
  8
0
  6
Continuous
 62
     7
100
AcDbLine
 10
671.0586144944
 20
386.7179680129
 30
0.0
 11
671.0586144944
 21
383.2179680129
 31
0.0
  0
LINE
  5
269
330
1F
100
AcDbEntity
  8
0
  6
Continuous
 62
     7
100
AcDbLine
 10
671.0586144944
 20
383.2179680129
 30
0.0
 11
715.225281161
 21
383.2179680129
 31
0.0
  0
LINE
  5
26A
330
1F
100
AcDbEntity
  8
0
  6
Continuous
 62
     7
100
AcDbLine
 10
715.225281161
 20
383.2179680129
 30
0.0
 11
715.225281161
 21
378.2179680129
 31
0.0
  0
LINE
  5
26B
330
1F
100
AcDbEntity
  8
0
  6
Continuous
 62
     7
100
AcDbLine
 10
745.225281161
 20
408.2179680129
 30
0.0
 11
745.225281161
 21
548.2179680129
 31
0.0
  0
LINE
  5
26C
330
1F
100
AcDbEntity
  8
0
  6
Continuous
 62
     7
100
AcDbLine
 10
715.225281161
 20
578.2179680129
 30
0.0
 11
435.225281161
 21
578.2179680129
 31
0.0
  0
LINE
  5
26D
330
1F
100
AcDbEntity
  8
0
  6
Continuous
 62
     7
100
AcDbLine
 10
405.225281161
 20
548.2179680129
 30
0.0
 11
405.225281161
 21
408.2179680129
 31
0.0
  0
LINE
  5
26E
330
1F
100
AcDbEntity
  8
0
  6
Continuous
 62
     7
100
AcDbLine
 10
435.225281161
 20
378.2179680129
 30
0.0
 11
435.225281161
 21
383.2179680129
 31
0.0
  0
LINE
  5
26F
330
1F
100
AcDbEntity
  8
0
  6
Continuous
 62
     7
100
AcDbLine
 10
435.225281161
 20
383.2179680129
 30
0.0
 11
479.3919478277
 21
383.2179680129
 31
0.0
  0
LINE
  5
270
330
1F
100
AcDbEntity
  8
0
  6
Continuous
 62
     7
100
AcDbLine
 10
479.3919478277
 20
383.2179680129
 30
0.0
 11
479.3919478277
 21
386.7179680129
 31
0.0
  0
LINE
  5
271
330
1F
100
AcDbEntity
  8
0
  6
Continuous
 62
     7
100
AcDbLine
 10
479.3919478277
 20
386.7179680129
 30
0.0
 11
477.8919478277
 21
386.7179680129
 31
0.0
  0
LINE
  5
272
330
1F
100
AcDbEntity
  8
0
  6
Continuous
 62
     7
100
AcDbLine
 10
477.8919478277
 20
386.7179680129
 30
0.0
 11
477.8919478277
 21
389.5179680129
 31
0.0
  0
LINE
  5
273
330
1F
100
AcDbEntity
  8
0
  6
Continuous
 62
     7
100
AcDbLine
 10
477.8919478277
 20
389.5179680129
 30
0.0
 11
479.3919478277
 21
389.5179680129
 31
0.0
  0
LINE
  5
274
330
1F
100
AcDbEntity
  8
0
  6
Continuous
 62
     7
100
AcDbLine
 10
479.3919478277
 20
389.5179680129
 30
0.0
 11
479.3919478277
 21
392.2179680129
 31
0.0
  0
LINE
  5
275
330
1F
100
AcDbEntity
  8
0
  6
Continuous
 62
     7
100
AcDbLine
 10
479.3919478277
 20
392.2179680129
 30
0.0
 11
484.3919478277
 21
392.2179680129
 31
0.0
  0
LINE
  5
276
330
1F
100
AcDbEntity
  8
0
  6
Continuous
 62
     7
100
AcDbLine
 10
484.3919478277
 20
392.2179680129
 30
0.0
 11
484.3919478277
 21
389.5179680129
 31
0.0
  0
LINE
  5
277
330
1F
100
AcDbEntity
  8
0
  6
Continuous
 62
     7
100
AcDbLine
 10
484.3919478277
 20
389.5179680129
 30
0.0
 11
485.8919478277
 21
389.5179680129
 31
0.0
  0
LINE
  5
278
330
1F
100
AcDbEntity
  8
0
  6
Continuous
 62
     7
100
AcDbLine
 10
485.8919478277
 20
389.5179680129
 30
0.0
 11
485.8919478277
 21
386.7179680129
 31
0.0
  0
LINE
  5
279
330
1F
100
AcDbEntity
  8
0
  6
Continuous
 62
     7
100
AcDbLine
 10
485.8919478277
 20
386.7179680129
 30
0.0
 11
484.3919478277
 21
386.7179680129
 31
0.0
  0
LINE
  5
27A
330
1F
100
AcDbEntity
  8
0
  6
Continuous
 62
     7
100
AcDbLine
 10
484.3919478277
 20
386.7179680129
 30
0.0
 11
484.3919478277
 21
383.2179680129
 31
0.0
  0
LINE
  5
27B
330
1F
100
AcDbEntity
  8
0
  6
Continuous
 62
     7
100
AcDbLine
 10
484.3919478277
 20
383.2179680129
 30
0.0
 11
528.5586144944
 21
383.2179680129
 31
0.0
  0
LINE
  5
27C
330
1F
100
AcDbEntity
  8
0
  6
Continuous
 62
     7
100
AcDbLine
 10
528.5586144944
 20
383.2179680129
 30
0.0
 11
528.5586144944
 21
378.2179680129
 31
0.0
  0
LINE
  5
27D
330
1F
100
AcDbEntity
  8
0
  6
Continuous
 62
     7
100
AcDbLine
 10
528.5586144944
 20
378.2179680129
 30
0.0
 11
621.8919478277
 21
378.2179680129
 31
0.0
  0
LINE
  5
27E
330
1F
100
AcDbEntity
  8
0
  6
Continuous
 62
     7
100
AcDbLine
 10
621.8919478277
 20
378.2179680129
 30
0.0
 11
621.8919478277
 21
383.2179680129
 31
0.0
  0
LINE
  5
27F
330
1F
100
AcDbEntity
  8
0
  6
Continuous
 62
     7
100
AcDbLine
 10
621.8919478277
 20
383.2179680129
 30
0.0
 11
666.0586144944
 21
383.2179680129
 31
0.0
  0
LINE
  5
280
330
1F
100
AcDbEntity
  8
0
  6
Continuous
 62
     7
100
AcDbLine
 10
666.0586144944
 20
383.2179680129
 30
0.0
 11
666.0586144944
 21
386.7179680129
 31
0.0
  0
LINE
  5
281
330
1F
100
AcDbEntity
  8
0
  6
Continuous
 62
     7
100
AcDbLine
 10
666.0586144944
 20
386.7179680129
 30
0.0
 11
664.5586144944
 21
386.7179680129
 31
0.0
  0
LINE
  5
282
330
1F
100
AcDbEntity
  8
0
  6
Continuous
 62
     7
100
AcDbLine
 10
664.5586144944
 20
386.7179680129
 30
0.0
 11
664.5586144944
 21
389.5179680129
 31
0.0
  0
LINE
  5
283
330
1F
100
AcDbEntity
  8
0
  6
Continuous
 62
     7
100
AcDbLine
 10
664.5586144944
 20
389.5179680129
 30
0.0
 11
666.0586144944
 21
389.5179680129
 31
0.0
  0
LINE
  5
284
330
1F
100
AcDbEntity
  8
0
  6
Continuous
 62
     7
100
AcDbLine
 10
666.0586144944
 20
389.5179680129
 30
0.0
 11
666.0586144944
 21
392.2179680129
 31
0.0
  0
LINE
  5
285
330
1F
100
AcDbEntity
  8
0
  6
Continuous
 62
     7
100
AcDbLine
 10
666.0586144944
 20
392.2179680129
 30
0.0
 11
671.0586144944
 21
392.2179680129
 31
0.0
  0
LINE
  5
286
330
1F
100
AcDbEntity
  8
0
  6
Continuous
 62
     7
100
AcDbLine
 10
671.0586144944
 20
392.2179680129
 30
0.0
 11
671.0586144944
 21
389.5179680129
 31
0.0
  0
LINE
  5
287
330
1F
100
AcDbEntity
  8
0
  6
Continuous
 62
     7
100
AcDbLine
 10
671.0586144944
 20
389.5179680129
 30
0.0
 11
672.5586144944
 21
389.5179680129
 31
0.0
  0
LINE
  5
288
330
1F
100
AcDbEntity
  8
0
  6
Continuous
 62
     7
100
AcDbLine
 10
672.5586144944
 20
389.5179680129
 30
0.0
 11
672.5586144944
 21
386.7179680129
 31
0.0
  0
LINE
  5
289
330
1F
100
AcDbEntity
  8
0
  6
Continuous
 62
     7
100
AcDbLine
 10
534.6943261254
 20
365.6020398087
 30
0.0
 11
523.6943261254
 21
354.6020398087
 31
0.0
  0
LINE
  5
28A
330
1F
100
AcDbEntity
  8
0
  6
Continuous
 62
     7
100
AcDbLine
 10
534.6943261254
 20
365.6020398087
 30
0.0
 11
536.6943261254
 21
365.6020398087
 31
0.0
  0
LINE
  5
28B
330
1F
100
AcDbEntity
  8
0
  6
Continuous
 62
     7
100
AcDbLine
 10
536.6943261254
 20
365.6020398087
 30
0.0
 11
536.6943261254
 21
359.6020398087
 31
0.0
  0
LINE
  5
28C
330
1F
100
AcDbEntity
  8
0
  6
Continuous
 62
     7
100
AcDbLine
 10
536.6943261254
 20
359.6020398087
 30
0.0
 11
547.6943261254
 21
354.6020398087
 31
0.0
  0
LINE
  5
28D
330
1F
100
AcDbEntity
  8
0
  6
Continuous
 62
     7
100
AcDbLine
 10
415.4443261254
 20
314.6020398087
 30
0.0
 11
655.9443261254
 21
314.6020398087
 31
0.0
  0
LINE
  5
28E
330
1F
100
AcDbEntity
  8
0
  6
Continuous
 62
     7
100
AcDbLine
 10
415.4443261254
 20
354.6020398087
 30
0.0
 11
415.4443261254
 21
314.6020398087
 31
0.0
  0
LINE
  5
28F
330
1F
100
AcDbEntity
  8
0
  6
Continuous
 62
     7
100
AcDbLine
 10
523.6943261254
 20
354.6020398087
 30
0.0
 11
415.4443261254
 21
354.6020398087
 31
0.0
  0
LINE
  5
290
330
1F
100
AcDbEntity
  8
0
  6
Continuous
 62
     7
100
AcDbLine
 10
655.9443261254
 20
314.6020398087
 30
0.0
 11
655.9443261254
 21
354.6020398087
 31
0.0
  0
LINE
  5
291
330
1F
100
AcDbEntity
  8
0
  6
Continuous
 62
     7
100
AcDbLine
 10
655.9443261254
 20
354.6020398087
 30
0.0
 11
547.6943261254
 21
354.6020398087
 31
0.0
  0
LINE
  5
292
330
1F
100
AcDbEntity
  8
0
  6
Continuous
 62
     7
100
AcDbLine
 10
547.6689389077
 20
327.7610442986
 30
0.0
 11
547.6689389077
 21
332.7610442986
 31
0.0
  0
LINE
  5
293
330
1F
100
AcDbEntity
  8
0
  6
Continuous
 62
     7
100
AcDbLine
 10
523.6689389077
 20
327.7610442986
 30
0.0
 11
547.6689389077
 21
327.7610442986
 31
0.0
  0
LINE
  5
294
330
1F
100
AcDbEntity
  8
0
  6
Continuous
 62
     7
100
AcDbLine
 10
523.6689389077
 20
332.7610442986
 30
0.0
 11
523.6689389077
 21
327.7610442986
 31
0.0
  0
LINE
  5
295
330
1F
100
AcDbEntity
  8
0
  6
Continuous
 62
     7
100
AcDbLine
 10
534.6689389077
 20
343.7610442986
 30
0.0
 11
523.6689389077
 21
332.7610442986
 31
0.0
  0
LINE
  5
296
330
1F
100
AcDbEntity
  8
0
  6
Continuous
 62
     7
100
AcDbLine
 10
534.6689389077
 20
343.7610442986
 30
0.0
 11
536.6689389077
 21
343.7610442986
 31
0.0
  0
LINE
  5
297
330
1F
100
AcDbEntity
  8
0
  6
Continuous
 62
     7
100
AcDbLine
 10
536.6689389077
 20
343.7610442986
 30
0.0
 11
536.6689389077
 21
337.7610442986
 31
0.0
  0
LINE
  5
298
330
1F
100
AcDbEntity
  8
0
  6
Continuous
 62
     7
100
AcDbLine
 10
536.6689389077
 20
337.7610442986
 30
0.0
 11
547.6689389077
 21
332.7610442986
 31
0.0
  0
LINE
  5
299
330
1F
100
AcDbEntity
  8
0
  6
Continuous
 62
     7
100
AcDbLine
 10
467.4773225689
 20
374.0495853154
 30
0.0
 11
456.4773225689
 21
363.0495853154
 31
0.0
  0
LINE
  5
29A
330
1F
100
AcDbEntity
  8
0
  6
Continuous
 62
     7
100
AcDbLine
 10
467.4773225689
 20
374.0495853154
 30
0.0
 11
469.4773225689
 21
374.0495853154
 31
0.0
  0
LINE
  5
29B
330
1F
100
AcDbEntity
  8
0
  6
Continuous
 62
     7
100
AcDbLine
 10
469.4773225689
 20
374.0495853154
 30
0.0
 11
469.4773225689
 21
368.0495853154
 31
0.0
  0
LINE
  5
29C
330
1F
100
AcDbEntity
  8
0
  6
Continuous
 62
     7
100
AcDbLine
 10
469.4773225689
 20
368.0495853154
 30
0.0
 11
480.4773225689
 21
363.0495853154
 31
0.0
  0
LINE
  5
29D
330
1F
100
AcDbEntity
  8
0
  6
Continuous
 62
     7
100
AcDbLine
 10
456.4773225689
 20
363.0495853154
 30
0.0
 11
480.4773225689
 21
363.0495853154
 31
0.0
  0
LINE
  5
29E
330
1F
100
AcDbEntity
  8
0
  6
Continuous
 62
     7
100
AcDbLine
 10
434.4339786546
 20
374.5839978221
 30
0.0
 11
423.4339786546
 21
363.5839978221
 31
0.0
  0
LINE
  5
29F
330
1F
100
AcDbEntity
  8
0
  6
Continuous
 62
     7
100
AcDbLine
 10
434.4339786546
 20
374.5839978221
 30
0.0
 11
436.4339786546
 21
374.5839978221
 31
0.0
  0
LINE
  5
2A0
330
1F
100
AcDbEntity
  8
0
  6
Continuous
 62
     7
100
AcDbLine
 10
436.4339786546
 20
374.5839978221
 30
0.0
 11
436.4339786546
 21
368.5839978221
 31
0.0
  0
LINE
  5
2A1
330
1F
100
AcDbEntity
  8
0
  6
Continuous
 62
     7
100
AcDbLine
 10
436.4339786546
 20
368.5839978221
 30
0.0
 11
447.4339786546
 21
363.5839978221
 31
0.0
  0
LINE
  5
2A2
330
1F
100
AcDbEntity
  8
0
  6
Continuous
 62
     7
100
AcDbLine
 10
423.4339786546
 20
363.5839978221
 30
0.0
 11
447.4339786546
 21
363.5839978221
 31
0.0
  0
ENDSEC
  0
SECTION
  2
OBJECTS
  0
DICTIONARY
  5
C
330
0
100
AcDbDictionary
281
     1
  3
ACAD_GROUP
350
D
  3
ACAD_LAYOUT
350
1A
  3
ACAD_MLINESTYLE
350
17
  3
ACAD_PLOTSETTINGS
350
19
  3
ACAD_PLOTSTYLENAME
350
E
  3
ACAD_SCALELIST
350
47
  0
DICTIONARY
  5
D
102
{ACAD_REACTORS
330
C
102
}
330
C
100
AcDbDictionary
281
     1
  0
DICTIONARY
  5
1A
102
{ACAD_REACTORS
330
C
102
}
330
C
100
AcDbDictionary
281
     1
  3
Layout1
350
1E
  3
Layout2
350
26
  3
Model
350
22
  0
DICTIONARY
  5
17
102
{ACAD_REACTORS
330
C
102
}
330
C
100
AcDbDictionary
281
     1
  3
Standard
350
18
  0
DICTIONARY
  5
19
102
{ACAD_REACTORS
330
C
102
}
330
C
100
AcDbDictionary
281
     1
  0
ACDBDICTIONARYWDFLT
  5
E
102
{ACAD_REACTORS
330
C
102
}
330
C
100
AcDbDictionary
281
     1
  3
Normal
350
F
100
AcDbDictionaryWithDefault
340
F
  0
DICTIONARY
  5
47
102
{ACAD_REACTORS
330
C
102
}
330
C
100
AcDbDictionary
281
     1
  3
A0
350
48
  3
A1
350
49
  3
A2
350
4A
  3
A3
350
4B
  3
A4
350
4C
  3
A5
350
4D
  3
A6
350
4E
  3
A7
350
4F
  3
A8
350
50
  3
A9
350
51
  3
B0
350
52
  3
B1
350
53
  3
B2
350
54
  3
B3
350
55
  3
B4
350
56
  3
B5
350
57
  3
B6
350
58
  3
B7
350
59
  3
B8
350
5A
  3
B9
350
5B
  3
C0
350
5C
  3
C1
350
5D
  3
C2
350
5E
  3
C3
350
5F
  3
C4
350
60
  3
C5
350
61
  3
C6
350
62
  3
C7
350
63
  3
C8
350
64
  3
C9
350
65
  3
D0
350
66
  3
D1
350
67
  3
D2
350
68
  0
LAYOUT
  5
1E
102
{ACAD_REACTORS
330
1A
102
}
330
1A
100
AcDbPlotSettings
  1

  2
none_device
  4

  6

 40
0.0
 41
0.0
 42
0.0
 43
0.0
 44
0.0
 45
0.0
 46
0.0
 47
0.0
 48
0.0
 49
0.0
140
0.0
141
0.0
142
1.0
143
1.0
 70
   688
 72
     1
 73
     0
 74
     5
  7

 75
    16
147
1.0
148
0.0
149
0.0
100
AcDbLayout
  1
Layout1
 70
     1
 71
     1
 10
0.0
 20
0.0
 11
420.0
 21
297.0
 12
0.0
 22
0.0
 32
0.0
 14
1.0000000000E+20
 24
1.0000000000E+20
 34
1.0000000000E+20
 15
-1.0000000000E+20
 25
-1.0000000000E+20
 35
-1.0000000000E+20
146
0.0
 13
0.0
 23
0.0
 33
0.0
 16
1.0
 26
0.0
 36
0.0
 17
0.0
 27
1.0
 37
0.0
 76
     0
330
1B
  0
LAYOUT
  5
26
102
{ACAD_REACTORS
330
1A
102
}
330
1A
100
AcDbPlotSettings
  1

  2
none_device
  4

  6

 40
0.0
 41
0.0
 42
0.0
 43
0.0
 44
0.0
 45
0.0
 46
0.0
 47
0.0
 48
0.0
 49
0.0
140
0.0
141
0.0
142
1.0
143
1.0
 70
   688
 72
     1
 73
     0
 74
     5
  7

 75
    16
147
1.0
148
0.0
149
0.0
100
AcDbLayout
  1
Layout2
 70
     1
 71
     2
 10
0.0
 20
0.0
 11
0.0
 21
0.0
 12
0.0
 22
0.0
 32
0.0
 14
0.0
 24
0.0
 34
0.0
 15
0.0
 25
0.0
 35
0.0
146
0.0
 13
0.0
 23
0.0
 33
0.0
 16
1.0
 26
0.0
 36
0.0
 17
0.0
 27
1.0
 37
0.0
 76
     0
330
23
  0
LAYOUT
  5
22
102
{ACAD_REACTORS
330
1A
102
}
330
1A
100
AcDbPlotSettings
  1

  2
none_device
  4
ANSI_A_(11.00_x_8.50_Inches)
  6

 40
6.35
 41
19.05
 42
6.35000508
 43
19.05000254
 44
279.4
 45
215.9
 46
-7.1561303147
 47
-19.3952784242
 48
0.0
 49
0.0
140
0.0
141
0.0
142
0.0146503465
143
1.0
 70
  1696
 72
     0
 73
     0
 74
     0
  7

 75
     0
147
0.0179189148
148
-1300.4909072572
149
0.0
100
AcDbLayout
  1
Model
 70
     1
 71
     0
 10
0.0
 20
0.0
 11
420.0
 21
297.0
 12
0.0
 22
0.0
 32
0.0
 14
9.9428386932
 24
3.8288233468
 34
0.0
 15
745.225281161
 25
578.2179680129
 35
0.0
146
0.0
 13
0.0
 23
0.0
 33
0.0
 16
1.0
 26
0.0
 36
0.0
 17
0.0
 27
1.0
 37
0.0
 76
     0
330
1F
331
29
  0
MLINESTYLE
  5
18
102
{ACAD_REACTORS
330
17
102
}
330
17
100
AcDbMlineStyle
  2
Standard
 70
     0
  3

 62
   256
 51
90.0
 52
90.0
 71
     2
 49
0.5
 62
   256
  6
BYLAYER
 49
-0.5
 62
   256
  6
BYLAYER
  0
ACDBPLACEHOLDER
  5
F
102
{ACAD_REACTORS
330
E
102
}
330
E
  0
SCALE
  5
48
102
{ACAD_REACTORS
330
47
102
}
330
47
100
AcDbScale
 70
     0
300
1:1
140
1.0
141
1.0
290
     1
  0
SCALE
  5
49
102
{ACAD_REACTORS
330
47
102
}
330
47
100
AcDbScale
 70
     0
300
1:2
140
1.0
141
2.0
290
     0
  0
SCALE
  5
4A
102
{ACAD_REACTORS
330
47
102
}
330
47
100
AcDbScale
 70
     0
300
1:4
140
1.0
141
4.0
290
     0
  0
SCALE
  5
4B
102
{ACAD_REACTORS
330
47
102
}
330
47
100
AcDbScale
 70
     0
300
1:5
140
1.0
141
5.0
290
     0
  0
SCALE
  5
4C
102
{ACAD_REACTORS
330
47
102
}
330
47
100
AcDbScale
 70
     0
300
1:8
140
1.0
141
8.0
290
     0
  0
SCALE
  5
4D
102
{ACAD_REACTORS
330
47
102
}
330
47
100
AcDbScale
 70
     0
300
1:10
140
1.0
141
10.0
290
     0
  0
SCALE
  5
4E
102
{ACAD_REACTORS
330
47
102
}
330
47
100
AcDbScale
 70
     0
300
1:16
140
1.0
141
16.0
290
     0
  0
SCALE
  5
4F
102
{ACAD_REACTORS
330
47
102
}
330
47
100
AcDbScale
 70
     0
300
1:20
140
1.0
141
20.0
290
     0
  0
SCALE
  5
50
102
{ACAD_REACTORS
330
47
102
}
330
47
100
AcDbScale
 70
     0
300
1:30
140
1.0
141
30.0
290
     0
  0
SCALE
  5
51
102
{ACAD_REACTORS
330
47
102
}
330
47
100
AcDbScale
 70
     0
300
1:40
140
1.0
141
40.0
290
     0
  0
SCALE
  5
52
102
{ACAD_REACTORS
330
47
102
}
330
47
100
AcDbScale
 70
     0
300
1:50
140
1.0
141
50.0
290
     0
  0
SCALE
  5
53
102
{ACAD_REACTORS
330
47
102
}
330
47
100
AcDbScale
 70
     0
300
1:100
140
1.0
141
100.0
290
     0
  0
SCALE
  5
54
102
{ACAD_REACTORS
330
47
102
}
330
47
100
AcDbScale
 70
     0
300
2:1
140
2.0
141
1.0
290
     0
  0
SCALE
  5
55
102
{ACAD_REACTORS
330
47
102
}
330
47
100
AcDbScale
 70
     0
300
4:1
140
4.0
141
1.0
290
     0
  0
SCALE
  5
56
102
{ACAD_REACTORS
330
47
102
}
330
47
100
AcDbScale
 70
     0
300
8:1
140
8.0
141
1.0
290
     0
  0
SCALE
  5
57
102
{ACAD_REACTORS
330
47
102
}
330
47
100
AcDbScale
 70
     0
300
10:1
140
10.0
141
1.0
290
     0
  0
SCALE
  5
58
102
{ACAD_REACTORS
330
47
102
}
330
47
100
AcDbScale
 70
     0
300
100:1
140
100.0
141
1.0
290
     0
  0
SCALE
  5
59
102
{ACAD_REACTORS
330
47
102
}
330
47
100
AcDbScale
 70
     0
300
1/128" = 1'-0"
140
0.0078125
141
12.0
290
     0
  0
SCALE
  5
5A
102
{ACAD_REACTORS
330
47
102
}
330
47
100
AcDbScale
 70
     0
300
1/64" = 1'-0"
140
0.015625
141
12.0
290
     0
  0
SCALE
  5
5B
102
{ACAD_REACTORS
330
47
102
}
330
47
100
AcDbScale
 70
     0
300
1/32" = 1'-0"
140
0.03125
141
12.0
290
     0
  0
SCALE
  5
5C
102
{ACAD_REACTORS
330
47
102
}
330
47
100
AcDbScale
 70
     0
300
1/16" = 1'-0"
140
0.0625
141
12.0
290
     0
  0
SCALE
  5
5D
102
{ACAD_REACTORS
330
47
102
}
330
47
100
AcDbScale
 70
     0
300
3/32" = 1'-0"
140
0.09375
141
12.0
290
     0
  0
SCALE
  5
5E
102
{ACAD_REACTORS
330
47
102
}
330
47
100
AcDbScale
 70
     0
300
1/8" = 1'-0"
140
0.125
141
12.0
290
     0
  0
SCALE
  5
5F
102
{ACAD_REACTORS
330
47
102
}
330
47
100
AcDbScale
 70
     0
300
3/16" = 1'-0"
140
0.1875
141
12.0
290
     0
  0
SCALE
  5
60
102
{ACAD_REACTORS
330
47
102
}
330
47
100
AcDbScale
 70
     0
300
1/4" = 1'-0"
140
0.25
141
12.0
290
     0
  0
SCALE
  5
61
102
{ACAD_REACTORS
330
47
102
}
330
47
100
AcDbScale
 70
     0
300
3/8" = 1'-0"
140
0.375
141
12.0
290
     0
  0
SCALE
  5
62
102
{ACAD_REACTORS
330
47
102
}
330
47
100
AcDbScale
 70
     0
300
1/2" = 1'-0"
140
0.5
141
12.0
290
     0
  0
SCALE
  5
63
102
{ACAD_REACTORS
330
47
102
}
330
47
100
AcDbScale
 70
     0
300
3/4" = 1'-0"
140
0.75
141
12.0
290
     0
  0
SCALE
  5
64
102
{ACAD_REACTORS
330
47
102
}
330
47
100
AcDbScale
 70
     0
300
1" = 1'-0"
140
1.0
141
12.0
290
     0
  0
SCALE
  5
65
102
{ACAD_REACTORS
330
47
102
}
330
47
100
AcDbScale
 70
     0
300
1-1/2" = 1'-0"
140
1.5
141
12.0
290
     0
  0
SCALE
  5
66
102
{ACAD_REACTORS
330
47
102
}
330
47
100
AcDbScale
 70
     0
300
3" = 1'-0"
140
3.0
141
12.0
290
     0
  0
SCALE
  5
67
102
{ACAD_REACTORS
330
47
102
}
330
47
100
AcDbScale
 70
     0
300
6" = 1'-0"
140
6.0
141
12.0
290
     0
  0
SCALE
  5
68
102
{ACAD_REACTORS
330
47
102
}
330
47
100
AcDbScale
 70
     0
300
1'-0" = 1'-0"
140
12.0
141
12.0
290
     0
  0
ENDSEC
  0
EOF
